<svg width="1920" height="1348" fill="none" xmlns="http://www.w3.org/2000/svg"><path fill="#E5E5E5" d="M0 0h1920v1348H0z"/><g clip-path="url(#a)"><path fill="#9D7DFE" d="M0 0h1920v1348H0z"/><path d="M272.109 289.938h40.313V309h-63.281V195.25h22.968v94.688Zm86.641 20.624c-11.354 0-20.208-3.385-26.562-10.156-6.355-6.771-9.532-16.458-9.532-29.062v-6.719c0-13.333 2.917-23.62 8.75-30.859 5.834-7.24 14.193-10.86 25.078-10.86 10.625 0 18.62 3.412 23.985 10.235 5.364 6.77 8.099 16.823 8.203 30.156v10.859h-43.984c.312 6.25 1.692 10.834 4.14 13.75 2.448 2.865 6.224 4.297 11.328 4.297 7.396 0 13.568-2.526 18.516-7.578l8.672 13.359c-2.709 3.75-6.641 6.797-11.797 9.141-5.156 2.292-10.755 3.437-16.797 3.437Zm-13.906-51.874h22.109v-2.032c-.104-5.052-.937-8.88-2.5-11.484-1.562-2.604-4.271-3.906-8.125-3.906s-6.667 1.38-8.437 4.14c-1.719 2.761-2.735 7.188-3.047 13.282Zm82.031-55v20.781h11.328v16.64h-11.328v41.953c0 3.334.443 5.626 1.328 6.876.938 1.25 2.708 1.874 5.313 1.874 2.135 0 3.88-.182 5.234-.546l-.156 17.187c-3.75 1.406-7.813 2.109-12.188 2.109-14.271 0-21.484-8.177-21.64-24.531v-44.922H395v-16.64h9.766v-20.781h22.109Zm44.297 20.781.625 7.812c4.948-6.25 11.484-9.375 19.609-9.375 8.438 0 14.401 3.802 17.891 11.406 4.844-7.604 11.745-11.406 20.703-11.406 14.792 0 22.37 10.235 22.734 30.703V309h-22.109v-53.984c0-4.896-.677-8.386-2.031-10.469s-3.646-3.125-6.875-3.125c-4.115 0-7.188 2.526-9.219 7.578l.156 2.656V309h-22.109v-53.828c0-4.844-.651-8.333-1.953-10.469-1.302-2.187-3.62-3.281-6.953-3.281-3.802 0-6.823 2.057-9.063 6.172V309h-22.109v-84.531h20.703Zm132.109 86.093c-11.354 0-20.208-3.385-26.562-10.156-6.354-6.771-9.531-16.458-9.531-29.062v-6.719c0-13.333 2.916-23.62 8.75-30.859 5.833-7.24 14.192-10.86 25.078-10.86 10.625 0 18.619 3.412 23.984 10.235 5.365 6.77 8.099 16.823 8.203 30.156v10.859h-43.984c.312 6.25 1.692 10.834 4.14 13.75 2.448 2.865 6.224 4.297 11.329 4.297 7.395 0 13.567-2.526 18.515-7.578l8.672 13.359c-2.708 3.75-6.641 6.797-11.797 9.141-5.156 2.292-10.755 3.437-16.797 3.437Zm-13.906-51.874h22.109v-2.032c-.104-5.052-.937-8.88-2.5-11.484-1.562-2.604-4.27-3.906-8.125-3.906-3.854 0-6.666 1.38-8.437 4.14-1.719 2.761-2.734 7.188-3.047 13.282ZM685.859 309c-.625-1.302-1.25-3.49-1.875-6.562-3.958 5.416-9.323 8.124-16.093 8.124-7.084 0-12.969-2.343-17.657-7.031-4.635-4.687-6.953-10.755-6.953-18.203 0-8.854 2.813-15.703 8.438-20.547 5.677-4.843 13.828-7.317 24.453-7.422h6.719v-6.797c0-3.802-.651-6.484-1.953-8.046-1.303-1.563-3.204-2.344-5.704-2.344-5.52 0-8.281 3.229-8.281 9.687h-22.109c0-7.812 2.916-14.244 8.75-19.297 5.885-5.104 13.307-7.656 22.265-7.656 9.271 0 16.433 2.422 21.485 7.266 5.104 4.792 7.656 11.667 7.656 20.625v39.765c.104 7.292 1.146 12.995 3.125 17.11V309h-22.266Zm-13.047-15.781c2.448 0 4.532-.495 6.25-1.485 1.719-.989 2.995-2.161 3.829-3.515v-17.578h-5.313c-3.75 0-6.719 1.198-8.906 3.593-2.136 2.396-3.203 5.599-3.203 9.61 0 6.25 2.448 9.375 7.343 9.375Zm85.626-6.875c0-1.875-.912-3.594-2.735-5.156-1.771-1.615-5.755-3.777-11.953-6.485-9.115-3.698-15.391-7.526-18.828-11.484-3.386-3.959-5.078-8.88-5.078-14.766 0-7.396 2.656-13.489 7.968-18.281 5.365-4.844 12.448-7.266 21.25-7.266 9.271 0 16.693 2.396 22.266 7.188 5.573 4.791 8.36 11.224 8.36 19.297h-22.11c0-6.875-2.864-10.313-8.594-10.313-2.343 0-4.27.729-5.781 2.188-1.51 1.458-2.265 3.489-2.265 6.093 0 1.875.833 3.542 2.5 5 1.666 1.407 5.598 3.438 11.796 6.094 9.011 3.333 15.365 7.057 19.063 11.172 3.75 4.063 5.625 9.349 5.625 15.859 0 7.552-2.839 13.62-8.516 18.204-5.677 4.583-13.125 6.874-22.344 6.874-6.197 0-11.666-1.197-16.406-3.593-4.739-2.448-8.463-5.834-11.172-10.157-2.656-4.322-3.984-8.984-3.984-13.984h21.016c.104 3.854.989 6.745 2.656 8.672 1.719 1.927 4.505 2.891 8.359 2.891 5.938 0 8.907-2.683 8.907-8.047Zm63.281-9.922-5.938 6.64V309h-22.109V189h22.109v64.844l2.735-4.063 15.312-25.312h26.328l-24.531 34.843L862.5 309h-25.312l-15.469-32.578ZM290.312 438h-7.539l-28.632-43.828V438h-7.539v-56.875h7.539l28.711 44.023v-44.023h7.46V438Zm29.727.781c-5.729 0-10.391-1.875-13.984-5.625-3.594-3.776-5.391-8.815-5.391-15.117v-1.328c0-4.193.794-7.93 2.383-11.211 1.614-3.307 3.854-5.885 6.719-7.734 2.89-1.875 6.015-2.813 9.375-2.813 5.494 0 9.765 1.81 12.812 5.43 3.047 3.62 4.57 8.802 4.57 15.547v3.008h-28.632c.104 4.166 1.315 7.539 3.632 10.117 2.344 2.552 5.313 3.828 8.907 3.828 2.552 0 4.713-.521 6.484-1.563 1.771-1.041 3.32-2.422 4.648-4.14l4.415 3.437c-3.542 5.443-8.855 8.164-15.938 8.164Zm-.898-37.89c-2.917 0-5.365 1.067-7.344 3.203-1.979 2.109-3.203 5.078-3.672 8.906h21.172v-.547c-.208-3.672-1.198-6.51-2.969-8.515-1.771-2.032-4.167-3.047-7.187-3.047Zm39.961 10.273 9.375-15.43h8.437l-13.828 20.899L377.344 438h-8.36l-9.765-15.82-9.766 15.82h-8.398l14.257-21.367-13.828-20.899h8.36l9.258 15.43Zm35.312-25.664v10.234h7.891v5.586h-7.891v26.211c0 1.693.352 2.969 1.055 3.828.703.834 1.901 1.25 3.593 1.25.834 0 1.98-.156 3.438-.468V438c-1.901.521-3.75.781-5.547.781-3.229 0-5.664-.976-7.305-2.929-1.64-1.954-2.46-4.727-2.46-8.321V401.32h-7.696v-5.586h7.696V385.5h7.226Zm44.883 46.367h26.953V438h-34.492v-56.875h7.539v50.742Zm51.914 6.914c-5.729 0-10.391-1.875-13.984-5.625-3.594-3.776-5.391-8.815-5.391-15.117v-1.328c0-4.193.794-7.93 2.383-11.211 1.614-3.307 3.854-5.885 6.719-7.734 2.89-1.875 6.015-2.813 9.374-2.813 5.495 0 9.766 1.81 12.813 5.43 3.047 3.62 4.57 8.802 4.57 15.547v3.008h-28.633c.105 4.166 1.316 7.539 3.633 10.117 2.344 2.552 5.313 3.828 8.907 3.828 2.552 0 4.713-.521 6.484-1.563 1.771-1.041 3.32-2.422 4.648-4.14l4.414 3.437c-3.541 5.443-8.854 8.164-15.937 8.164Zm-.899-37.89c-2.916 0-5.364 1.067-7.343 3.203-1.979 2.109-3.203 5.078-3.672 8.906h21.172v-.547c-.209-3.672-1.198-6.51-2.969-8.515-1.771-2.032-4.167-3.047-7.188-3.047Zm39.18 27.304 10.469-32.461h7.383L532.188 438h-5.508l-15.313-42.266h7.383l10.742 32.461Zm41.797 10.586c-5.729 0-10.391-1.875-13.984-5.625-3.594-3.776-5.391-8.815-5.391-15.117v-1.328c0-4.193.794-7.93 2.383-11.211 1.614-3.307 3.854-5.885 6.719-7.734 2.89-1.875 6.015-2.813 9.375-2.813 5.494 0 9.765 1.81 12.812 5.43 3.047 3.62 4.57 8.802 4.57 15.547v3.008h-28.632c.104 4.166 1.315 7.539 3.632 10.117 2.344 2.552 5.313 3.828 8.907 3.828 2.552 0 4.713-.521 6.484-1.563 1.771-1.041 3.32-2.422 4.648-4.14l4.415 3.437c-3.542 5.443-8.855 8.164-15.938 8.164Zm-.898-37.89c-2.917 0-5.365 1.067-7.344 3.203-1.979 2.109-3.203 5.078-3.672 8.906h21.172v-.547c-.208-3.672-1.198-6.51-2.969-8.515-1.771-2.032-4.167-3.047-7.187-3.047ZM604.023 438h-7.226v-60h7.226v60Zm44.844-17.93 1.094 7.5 1.601-6.758 11.25-39.687h6.329l10.976 39.687 1.563 6.876 1.211-7.657 8.828-38.906h7.539L685.469 438h-6.836l-11.719-41.445-.898-4.336-.899 4.336L652.969 438h-6.836l-13.75-56.875h7.5l8.984 38.945Zm73.906 18.711c-5.729 0-10.39-1.875-13.984-5.625-3.594-3.776-5.391-8.815-5.391-15.117v-1.328c0-4.193.795-7.93 2.383-11.211 1.615-3.307 3.854-5.885 6.719-7.734 2.891-1.875 6.016-2.813 9.375-2.813 5.495 0 9.766 1.81 12.813 5.43 3.046 3.62 4.57 8.802 4.57 15.547v3.008h-28.633c.104 4.166 1.315 7.539 3.633 10.117 2.344 2.552 5.312 3.828 8.906 3.828 2.552 0 4.714-.521 6.484-1.563 1.771-1.041 3.321-2.422 4.649-4.14l4.414 3.437c-3.542 5.443-8.854 8.164-15.938 8.164Zm-.898-37.89c-2.917 0-5.365 1.067-7.344 3.203-1.979 2.109-3.203 5.078-3.672 8.906h21.172v-.547c-.208-3.672-1.198-6.51-2.969-8.515-1.77-2.032-4.166-3.047-7.187-3.047Zm43.32 37.89c-5.729 0-10.39-1.875-13.984-5.625-3.594-3.776-5.391-8.815-5.391-15.117v-1.328c0-4.193.795-7.93 2.383-11.211 1.615-3.307 3.854-5.885 6.719-7.734 2.89-1.875 6.016-2.813 9.375-2.813 5.495 0 9.765 1.81 12.812 5.43 3.047 3.62 4.571 8.802 4.571 15.547v3.008h-28.633c.104 4.166 1.315 7.539 3.633 10.117 2.343 2.552 5.312 3.828 8.906 3.828 2.552 0 4.713-.521 6.484-1.563 1.771-1.041 3.321-2.422 4.649-4.14l4.414 3.437c-3.542 5.443-8.854 8.164-15.938 8.164Zm-.898-37.89c-2.917 0-5.365 1.067-7.344 3.203-1.979 2.109-3.203 5.078-3.672 8.906h21.172v-.547c-.208-3.672-1.198-6.51-2.969-8.515-1.77-2.032-4.166-3.047-7.187-3.047Zm37.578 17.539-4.531 4.726V438h-7.227v-60h7.227v36.289l3.867-4.648 13.164-13.907h8.789l-16.445 17.657L825.078 438h-8.476l-14.727-19.57Zm87.461-31.133h-18.281V438h-7.461v-50.703h-18.242v-6.172h43.984v6.172Zm1.484 29.18c0-4.141.808-7.865 2.422-11.172 1.641-3.308 3.906-5.86 6.797-7.657 2.917-1.796 6.237-2.695 9.961-2.695 5.755 0 10.404 1.992 13.945 5.977 3.568 3.984 5.352 9.284 5.352 15.898v.508c0 4.115-.794 7.812-2.383 11.094-1.562 3.255-3.815 5.794-6.758 7.617-2.916 1.823-6.276 2.734-10.078 2.734-5.729 0-10.377-1.992-13.945-5.976-3.542-3.985-5.313-9.258-5.313-15.821v-.507Zm7.266.859c0 4.687 1.081 8.45 3.242 11.289 2.188 2.839 5.104 4.258 8.75 4.258 3.672 0 6.589-1.432 8.75-4.297 2.162-2.891 3.242-6.927 3.242-12.109 0-4.636-1.106-8.386-3.32-11.25-2.188-2.891-5.104-4.336-8.75-4.336-3.568 0-6.445 1.419-8.633 4.257-2.187 2.839-3.281 6.901-3.281 12.188Zm38.555-.82c0-6.589 1.523-11.823 4.57-15.704 3.047-3.906 7.083-5.859 12.109-5.859 5.157 0 9.18 1.823 12.071 5.469l.351-4.688h6.602v41.25c0 5.469-1.628 9.779-4.883 12.93-3.229 3.151-7.578 4.727-13.047 4.727-3.047 0-6.029-.651-8.945-1.953-2.917-1.303-5.143-3.086-6.68-5.352l3.75-4.336c3.099 3.828 6.888 5.742 11.367 5.742 3.516 0 6.25-.989 8.203-2.969 1.98-1.979 2.969-4.765 2.969-8.359v-3.633c-2.89 3.334-6.836 5-11.836 5-4.948 0-8.958-1.992-12.031-5.976-3.047-3.985-4.57-9.414-4.57-16.289Zm7.265.82c0 4.766.977 8.516 2.93 11.25 1.953 2.708 4.687 4.062 8.203 4.062 4.557 0 7.904-2.07 10.039-6.21v-19.297c-2.213-4.037-5.534-6.055-9.961-6.055-3.515 0-6.263 1.367-8.242 4.102-1.979 2.734-2.969 6.783-2.969 12.148Zm56.914 21.445c-5.729 0-10.39-1.875-13.984-5.625-3.594-3.776-5.391-8.815-5.391-15.117v-1.328c0-4.193.795-7.93 2.383-11.211 1.615-3.307 3.854-5.885 6.719-7.734 2.891-1.875 6.015-2.813 9.375-2.813 5.498 0 9.768 1.81 12.808 5.43 3.05 3.62 4.57 8.802 4.57 15.547v3.008h-28.628c.104 4.166 1.315 7.539 3.633 10.117 2.343 2.552 5.312 3.828 8.905 3.828 2.55 0 4.71-.521 6.49-1.563 1.77-1.041 3.32-2.422 4.64-4.14l4.42 3.437c-3.54 5.443-8.86 8.164-15.94 8.164Zm-.898-37.89c-2.917 0-5.365 1.067-7.344 3.203-1.979 2.109-3.203 5.078-3.672 8.906h21.174v-.547c-.21-3.672-1.2-6.51-2.97-8.515-1.77-2.032-4.17-3.047-7.188-3.047Zm35.588-15.391v10.234h7.89v5.586h-7.89v26.211c0 1.693.35 2.969 1.05 3.828.71.834 1.9 1.25 3.6 1.25.83 0 1.98-.156 3.43-.468V438c-1.9.521-3.75.781-5.54.781-3.23 0-5.67-.976-7.31-2.929-1.64-1.954-2.46-4.727-2.46-8.321V401.32h-7.69v-5.586h7.69V385.5h7.23Zm23.59 15.352c3.2-3.933 7.37-5.899 12.5-5.899 8.93 0 13.44 5.039 13.52 15.117V438h-7.23v-27.969c-.03-3.047-.73-5.299-2.11-6.758-1.35-1.458-3.48-2.187-6.37-2.187-2.34 0-4.4.625-6.17 1.875-1.77 1.25-3.15 2.891-4.14 4.922V438h-7.22v-60h7.22v22.852Zm54.38 37.929c-5.73 0-10.39-1.875-13.99-5.625-3.59-3.776-5.39-8.815-5.39-15.117v-1.328c0-4.193.8-7.93 2.38-11.211 1.62-3.307 3.86-5.885 6.72-7.734 2.89-1.875 6.02-2.813 9.38-2.813 5.49 0 9.76 1.81 12.81 5.43 3.05 3.62 4.57 8.802 4.57 15.547v3.008h-28.63c.1 4.166 1.31 7.539 3.63 10.117 2.34 2.552 5.31 3.828 8.91 3.828 2.55 0 4.71-.521 6.48-1.563 1.77-1.041 3.32-2.422 4.65-4.14l4.41 3.437c-3.54 5.443-8.85 8.164-15.93 8.164Zm-.9-37.89c-2.92 0-5.37 1.067-7.35 3.203-1.97 2.109-3.2 5.078-3.67 8.906h21.17v-.547c-.2-3.672-1.19-6.51-2.96-8.515-1.78-2.032-4.17-3.047-7.19-3.047Zm46.21 1.328a21.575 21.575 0 0 0-3.56-.274c-4.74 0-7.95 2.019-9.64 6.055v30h-7.23v-42.266h7.03l.12 4.883c2.37-3.776 5.73-5.664 10.08-5.664 1.4 0 2.47.182 3.2.547v6.719Z" fill="#fff"/><g filter="url(#b)"><g clip-path="url(#c)"><rect x="240" y="620" width="1440" height="820" rx="40" fill="#F8F8F8"/><path d="M240 620h676v820H240V620Z" fill="#835AFD"/><path opacity=".5" d="M411.889 1227.98c28.749-16.77 52.516-1.09 56.72 35.1.732 6.27-4.022 14.54-9.826 17.92l-93.787 54.76c-5.805 3.38-10.558.64-9.827-6.49 4.205-41 28.017-84.51 56.72-101.29Z" fill="url(#d)"/><path opacity=".5" d="M379.85 1181c0 25 14.443 36.79 32.268 26.37 17.825-10.42 32.268-39.08 32.268-64.08s-14.443-36.79-32.268-26.37c-17.825 10.42-32.268 39.08-32.268 64.08Z" fill="url(#e)"/><path opacity=".07" d="M393.424 1212.99c28.749-16.77 52.516-1.1 56.721 35.1.731 6.26-4.022 14.54-9.827 17.92l-93.787 54.75c-5.805 3.39-10.558.64-9.827-6.49 4.205-40.99 27.972-84.5 56.72-101.28Z" fill="url(#f)"/><path opacity=".07" d="M361.385 1166.01c0 25 14.443 36.79 32.268 26.37 17.825-10.42 32.268-39.08 32.268-64.08s-14.443-36.79-32.268-26.37c-17.825 10.42-32.268 39.08-32.268 64.08Z" fill="url(#g)"/><path opacity=".2" d="M299.272 1356.76c0-1.6.854-3.08 2.242-3.88l72.25-41.72c2.989-1.72 6.726.44 6.726 3.89v34.55l-81.218 46.9v-39.74Z" fill="url(#h)"/><path d="M363.99 1331c0 3.48 2.057 5.12 4.617 3.66 2.559-1.46 4.616-5.49 4.616-8.96 0-3.47-2.057-5.12-4.616-3.66-2.56 1.47-4.617 5.49-4.617 8.96Z" fill="#E559F9"/><path opacity=".15" d="m359.694 1329.49-24.406 14.13v5.07l24.452-14.12-.046-5.08ZM359.694 1339.69l-52.012 30.02v5.17l52.012-30.03v-5.16Z" fill="#FEFEFE"/><path opacity=".2" d="M464.268 1307.86c0-1.6.855-3.08 2.243-3.88l72.25-41.68c2.989-1.72 6.725.43 6.725 3.89v34.56l-81.218 46.89v-39.78Z" fill="url(#i)"/><path d="M528.986 1282.1c0 3.47 2.057 5.12 4.616 3.65 2.56-1.46 4.617-5.48 4.617-8.95 0-3.48-2.057-5.12-4.617-3.66-2.559 1.46-4.616 5.48-4.616 8.96Z" fill="#835AFD"/><path opacity=".15" d="m524.827 1280.82-14.717 8.5v5.16l14.717-8.5v-5.16ZM524.69 1291.01l-52.013 30.03v5.16l52.013-30.03v-5.16Z" fill="#FEFEFE"/><path opacity=".3" d="M432.73 1377.7c0-1.61.855-3.09 2.243-3.89l144.918-83.62c2.99-1.73 6.727.43 6.725 3.88l-.041 72.44-140.315 80.99-10.839 16.06c-.825 1.22-2.734.64-2.733-.84l.042-85.02Z" fill="url(#j)"/><path opacity=".15" d="M472.266 1385.89 573 1327.76v7.04l-100.688 58.13-.046-7.04Z" fill="#FEFEFE"/><path opacity=".2" d="m323.953 1246.49-12.706 24.96c-1.737 3.43-1.463 6.85.639 7.68 2.103.82 5.211-1.33 6.948-4.76l.137-.32v27.7c0 3.15 2.194 4.43 4.936 2.88 2.742-1.6 4.936-5.39 4.936-8.55v-27.69l.137.13c1.737 1.42 4.891-.04 6.947-3.29 2.103-3.24 2.377-6.99.64-8.41l-12.614-10.33Z" fill="url(#k)"/><path opacity=".2" d="M742.272 683.763c0-1.601.854-3.082 2.242-3.883l72.25-41.715c2.989-1.726 6.726.431 6.726 3.883v34.556l-81.218 46.894v-39.735Z" fill="url(#l)"/><path d="M806.99 658.002c0 3.474 2.057 5.119 4.617 3.656 2.559-1.462 4.616-5.484 4.616-8.958 0-3.473-2.057-5.119-4.616-3.656-2.56 1.462-4.617 5.484-4.617 8.958Z" fill="#E559F9"/><path opacity=".15" d="m802.694 656.494-24.406 14.123v5.073l24.452-14.123-.046-5.073ZM802.694 666.686l-52.012 30.028v5.165l52.012-30.028v-5.165Z" fill="#FEFEFE"/><path opacity=".2" d="M907.268 634.86c0-1.603.855-3.083 2.243-3.884l72.25-41.675c2.989-1.724 6.725.433 6.725 3.884v34.56l-81.218 46.894V634.86Z" fill="url(#m)"/><path opacity=".15" d="m967.827 607.818-14.717 8.501v5.165l14.717-8.502v-5.164ZM967.69 618.01l-52.013 30.028v5.165l52.013-30.028v-5.165Z" fill="#FEFEFE"/><path opacity=".3" d="M854.931 686.843c.002-3.452-3.736-5.612-6.726-3.885l-144.919 83.671a4.486 4.486 0 0 0-2.242 3.881L701 848.136l140.315-80.99 11.617 3.794a1.494 1.494 0 0 0 1.958-1.42l.041-82.677Z" fill="url(#n)"/><path d="M823.673 724c0 6.628 3.885 9.69 8.729 6.902 4.845-2.788 8.73-10.421 8.73-17.002 0-6.628-3.885-9.69-8.73-6.902-4.799 2.788-8.729 10.421-8.729 17.002Z" fill="#E559F9"/><path opacity=".15" d="m815.354 721.441-33.73 19.47v7.039l33.73-19.47v-7.039ZM815.354 735.564 714.62 793.701v7.038l100.734-58.137v-7.038ZM815.354 749.687l-78.75 45.476v7.039l78.75-45.477v-7.038Z" fill="#FEFEFE"/><path opacity=".3" d="M875.73 704.696a4.48 4.48 0 0 1 2.243-3.882l144.917-83.628c2.99-1.726 6.73.434 6.73 3.886l-.05 72.443-140.31 80.989-10.839 16.057c-.825 1.223-2.734.638-2.733-.837l.042-85.028Z" fill="url(#o)"/><path d="M906.993 710.929c0 6.627-3.93 14.214-8.729 17.002-4.845 2.788-8.73-.32-8.73-6.947s3.931-14.215 8.73-17.003c4.799-2.742 8.729.366 8.729 6.948Z" fill="#835AFD"/><path opacity=".15" d="m915.312 698.817 33.73-19.471v7.039l-33.73 19.47v-7.038ZM915.266 712.894 1016 654.757v7.039l-100.688 58.137-.046-7.039ZM915.266 727.017l78.75-45.477v7.039l-78.75 45.476v-7.038Z" fill="#FEFEFE"/><path opacity=".2" d="M965.542 752.063c-2.743 1.554-4.936 5.394-4.936 8.593v13.94l-9.233 5.302c-2.742 1.554-4.936 5.393-4.936 8.547 0 3.153 2.194 4.433 4.936 2.879l9.233-5.347v13.94c0 3.153 2.193 4.433 4.936 2.879 2.742-1.554 4.936-5.393 4.936-8.547v-13.94l9.232-5.302c2.743-1.554 4.936-5.393 4.936-8.547 0-3.153-2.193-4.433-4.936-2.879l-9.232 5.302v-13.94c.046-3.2-2.194-4.479-4.936-2.88Z" fill="url(#p)"/><path d="M322.412 903.728v4.932h-6.696V929h-6.156v-20.34h-6.696v-4.932h19.548Zm12.234 25.56c-1.968 0-3.744-.42-5.328-1.26-1.56-.84-2.796-2.04-3.708-3.6-.888-1.56-1.332-3.384-1.332-5.472 0-2.064.456-3.876 1.368-5.436.912-1.584 2.16-2.796 3.744-3.636 1.584-.84 3.36-1.26 5.328-1.26 1.968 0 3.744.42 5.328 1.26 1.584.84 2.832 2.052 3.744 3.636.912 1.56 1.368 3.372 1.368 5.436s-.468 3.888-1.404 5.472a9.258 9.258 0 0 1-3.78 3.6c-1.584.84-3.36 1.26-5.328 1.26Zm0-5.328c1.176 0 2.172-.432 2.988-1.296.84-.864 1.26-2.1 1.26-3.708s-.408-2.844-1.224-3.708c-.792-.864-1.776-1.296-2.952-1.296-1.2 0-2.196.432-2.988 1.296-.792.84-1.188 2.076-1.188 3.708 0 1.608.384 2.844 1.152 3.708.792.864 1.776 1.296 2.952 1.296Zm12.553-5.04c0-2.064.384-3.876 1.152-5.436.792-1.56 1.86-2.76 3.204-3.6 1.344-.84 2.844-1.26 4.5-1.26 1.32 0 2.52.276 3.6.828 1.104.552 1.968 1.296 2.592 2.232v-9.324h6.156V929h-6.156v-2.88c-.576.96-1.404 1.728-2.484 2.304-1.056.576-2.292.864-3.708.864-1.656 0-3.156-.42-4.5-1.26-1.344-.864-2.412-2.076-3.204-3.636-.768-1.584-1.152-3.408-1.152-5.472Zm15.048.036c0-1.536-.432-2.748-1.296-3.636-.84-.888-1.872-1.332-3.096-1.332s-2.268.444-3.132 1.332c-.84.864-1.26 2.064-1.26 3.6s.42 2.76 1.26 3.672c.864.888 1.908 1.332 3.132 1.332 1.224 0 2.256-.444 3.096-1.332.864-.888 1.296-2.1 1.296-3.636Zm9.386-.036c0-2.064.384-3.876 1.152-5.436.792-1.56 1.86-2.76 3.204-3.6 1.344-.84 2.844-1.26 4.5-1.26 1.416 0 2.652.288 3.708.864 1.08.576 1.908 1.332 2.484 2.268v-2.844h6.156V929h-6.156v-2.844c-.6.936-1.44 1.692-2.52 2.268-1.056.576-2.292.864-3.708.864-1.632 0-3.12-.42-4.464-1.26-1.344-.864-2.412-2.076-3.204-3.636-.768-1.584-1.152-3.408-1.152-5.472Zm15.048.036c0-1.536-.432-2.748-1.296-3.636-.84-.888-1.872-1.332-3.096-1.332s-2.268.444-3.132 1.332c-.84.864-1.26 2.064-1.26 3.6s.42 2.76 1.26 3.672c.864.888 1.908 1.332 3.132 1.332 1.224 0 2.256-.444 3.096-1.332.864-.888 1.296-2.1 1.296-3.636Zm24.395-7.2c.6-.936 1.428-1.692 2.484-2.268 1.056-.576 2.292-.864 3.708-.864 1.656 0 3.156.42 4.5 1.26 1.344.84 2.4 2.04 3.168 3.6.792 1.56 1.188 3.372 1.188 5.436s-.396 3.888-1.188 5.472c-.768 1.56-1.824 2.772-3.168 3.636-1.344.84-2.844 1.26-4.5 1.26-1.392 0-2.628-.288-3.708-.864-1.056-.576-1.884-1.32-2.484-2.232v12.384h-6.156v-29.664h6.156v2.844Zm8.784 7.164c0-1.536-.432-2.736-1.296-3.6-.84-.888-1.884-1.332-3.132-1.332-1.224 0-2.268.444-3.132 1.332-.84.888-1.26 2.1-1.26 3.636s.42 2.748 1.26 3.636c.864.888 1.908 1.332 3.132 1.332 1.224 0 2.268-.444 3.132-1.332.864-.912 1.296-2.136 1.296-3.672Zm28.429-.288c0 .576-.036 1.176-.108 1.8h-13.932c.096 1.248.492 2.208 1.188 2.88.72.648 1.596.972 2.628.972 1.536 0 2.604-.648 3.204-1.944h6.552a8.874 8.874 0 0 1-1.836 3.564c-.864 1.056-1.956 1.884-3.276 2.484-1.32.6-2.796.9-4.428.9-1.968 0-3.72-.42-5.256-1.26-1.536-.84-2.736-2.04-3.6-3.6-.864-1.56-1.296-3.384-1.296-5.472 0-2.088.42-3.912 1.26-5.472.864-1.56 2.064-2.76 3.6-3.6 1.536-.84 3.3-1.26 5.292-1.26 1.944 0 3.672.408 5.184 1.224a8.672 8.672 0 0 1 3.528 3.492c.864 1.512 1.296 3.276 1.296 5.292Zm-6.3-1.62c0-1.056-.36-1.896-1.08-2.52-.72-.624-1.62-.936-2.7-.936-1.032 0-1.908.3-2.628.9-.696.6-1.128 1.452-1.296 2.556h7.704Zm15.704-4.752c.72-1.104 1.62-1.968 2.7-2.592 1.08-.648 2.28-.972 3.6-.972v6.516h-1.692c-1.536 0-2.688.336-3.456 1.008-.768.648-1.152 1.8-1.152 3.456V929h-6.156v-20.088h6.156v3.348Zm16.874-3.636c1.416 0 2.652.288 3.708.864 1.08.576 1.908 1.332 2.484 2.268v-2.844h6.156v20.052c0 1.848-.372 3.516-1.116 5.004-.72 1.512-1.836 2.712-3.348 3.6-1.488.888-3.348 1.332-5.58 1.332-2.976 0-5.388-.708-7.236-2.124-1.848-1.392-2.904-3.288-3.168-5.688h6.084c.192.768.648 1.368 1.368 1.8.72.456 1.608.684 2.664.684 1.272 0 2.28-.372 3.024-1.116.768-.72 1.152-1.884 1.152-3.492v-2.844c-.6.936-1.428 1.704-2.484 2.304-1.056.576-2.292.864-3.708.864-1.656 0-3.156-.42-4.5-1.26-1.344-.864-2.412-2.076-3.204-3.636-.768-1.584-1.152-3.408-1.152-5.472 0-2.064.384-3.876 1.152-5.436.792-1.56 1.86-2.76 3.204-3.6 1.344-.84 2.844-1.26 4.5-1.26Zm6.192 10.332c0-1.536-.432-2.748-1.296-3.636-.84-.888-1.872-1.332-3.096-1.332s-2.268.444-3.132 1.332c-.84.864-1.26 2.064-1.26 3.6s.42 2.76 1.26 3.672c.864.888 1.908 1.332 3.132 1.332 1.224 0 2.256-.444 3.096-1.332.864-.888 1.296-2.1 1.296-3.636Zm30.446-10.044V929h-6.156v-2.736c-.624.888-1.476 1.608-2.556 2.16-1.056.528-2.232.792-3.528.792-1.536 0-2.892-.336-4.068-1.008-1.176-.696-2.088-1.692-2.736-2.988-.648-1.296-.972-2.82-.972-4.572v-11.736h6.12v10.908c0 1.344.348 2.388 1.044 3.132.696.744 1.632 1.116 2.808 1.116 1.2 0 2.148-.372 2.844-1.116.696-.744 1.044-1.788 1.044-3.132v-10.908h6.156Zm16.662-.216c2.352 0 4.224.768 5.616 2.304 1.416 1.512 2.124 3.6 2.124 6.264V929h-6.12v-10.908c0-1.344-.348-2.388-1.044-3.132-.696-.744-1.632-1.116-2.808-1.116s-2.112.372-2.808 1.116c-.696.744-1.044 1.788-1.044 3.132V929h-6.156v-20.088h6.156v2.664c.624-.888 1.464-1.584 2.52-2.088 1.056-.528 2.244-.792 3.564-.792Zm23.213 15.084V929h-3.132c-2.232 0-3.972-.54-5.22-1.62-1.248-1.104-1.872-2.892-1.872-5.364v-7.992h-2.448v-5.112h2.448v-4.896h6.156v4.896h4.032v5.112h-4.032v8.064c0 .6.144 1.032.432 1.296.288.264.768.396 1.44.396h2.196Zm2.205-4.86c0-2.064.384-3.876 1.152-5.436.792-1.56 1.86-2.76 3.204-3.6 1.344-.84 2.844-1.26 4.5-1.26 1.416 0 2.652.288 3.708.864 1.08.576 1.908 1.332 2.484 2.268v-2.844h6.156V929h-6.156v-2.844c-.6.936-1.44 1.692-2.52 2.268-1.056.576-2.292.864-3.708.864-1.632 0-3.12-.42-4.464-1.26-1.344-.864-2.412-2.076-3.204-3.636-.768-1.584-1.152-3.408-1.152-5.472Zm15.048.036c0-1.536-.432-2.748-1.296-3.636-.84-.888-1.872-1.332-3.096-1.332s-2.268.444-3.132 1.332c-.84.864-1.26 2.064-1.26 3.6s.42 2.76 1.26 3.672c.864.888 1.908 1.332 3.132 1.332 1.224 0 2.256-.444 3.096-1.332.864-.888 1.296-2.1 1.296-3.636Zm29.435 4.824V929h-3.132c-2.232 0-3.972-.54-5.22-1.62-1.248-1.104-1.872-2.892-1.872-5.364v-7.992h-2.448v-5.112h2.448v-4.896h6.156v4.896h4.032v5.112H593.7v8.064c0 .6.144 1.032.432 1.296.288.264.768.396 1.44.396h2.196Zm22.365-5.148c0 .576-.036 1.176-.108 1.8h-13.932c.096 1.248.492 2.208 1.188 2.88.72.648 1.596.972 2.628.972 1.536 0 2.604-.648 3.204-1.944h6.552a8.874 8.874 0 0 1-1.836 3.564c-.864 1.056-1.956 1.884-3.276 2.484-1.32.6-2.796.9-4.428.9-1.968 0-3.72-.42-5.256-1.26-1.536-.84-2.736-2.04-3.6-3.6-.864-1.56-1.296-3.384-1.296-5.472 0-2.088.42-3.912 1.26-5.472.864-1.56 2.064-2.76 3.6-3.6 1.536-.84 3.3-1.26 5.292-1.26 1.944 0 3.672.408 5.184 1.224a8.672 8.672 0 0 1 3.528 3.492c.864 1.512 1.296 3.276 1.296 5.292Zm-6.3-1.62c0-1.056-.36-1.896-1.08-2.52-.72-.624-1.62-.936-2.7-.936-1.032 0-1.908.3-2.628.9-.696.6-1.128 1.452-1.296 2.556h7.704Zm35.179-8.316c2.496 0 4.476.756 5.94 2.268 1.488 1.512 2.232 3.612 2.232 6.3V929h-6.12v-10.908c0-1.296-.348-2.292-1.044-2.988-.672-.72-1.608-1.08-2.808-1.08-1.2 0-2.148.36-2.844 1.08-.672.696-1.008 1.692-1.008 2.988V929h-6.12v-10.908c0-1.296-.348-2.292-1.044-2.988-.672-.72-1.608-1.08-2.808-1.08-1.2 0-2.148.36-2.844 1.08-.672.696-1.008 1.692-1.008 2.988V929h-6.156v-20.088h6.156v2.52c.624-.84 1.44-1.5 2.448-1.98 1.008-.504 2.148-.756 3.42-.756 1.512 0 2.856.324 4.032.972a6.938 6.938 0 0 1 2.808 2.772c.696-1.104 1.644-2.004 2.844-2.7a7.684 7.684 0 0 1 3.924-1.044Zm39.943.216V929h-6.156v-2.736c-.624.888-1.476 1.608-2.556 2.16-1.056.528-2.232.792-3.528.792-1.536 0-2.892-.336-4.068-1.008-1.176-.696-2.088-1.692-2.736-2.988-.648-1.296-.972-2.82-.972-4.572v-11.736h6.12v10.908c0 1.344.348 2.388 1.044 3.132.696.744 1.632 1.116 2.808 1.116 1.2 0 2.148-.372 2.844-1.116.696-.744 1.044-1.788 1.044-3.132v-10.908h6.156Zm30.054-.216c2.496 0 4.476.756 5.94 2.268 1.488 1.512 2.232 3.612 2.232 6.3V929h-6.12v-10.908c0-1.296-.348-2.292-1.044-2.988-.672-.72-1.608-1.08-2.808-1.08-1.2 0-2.148.36-2.844 1.08-.672.696-1.008 1.692-1.008 2.988V929h-6.12v-10.908c0-1.296-.348-2.292-1.044-2.988-.672-.72-1.608-1.08-2.808-1.08-1.2 0-2.148.36-2.844 1.08-.672.696-1.008 1.692-1.008 2.988V929h-6.156v-20.088h6.156v2.52c.624-.84 1.44-1.5 2.448-1.98 1.008-.504 2.148-.756 3.42-.756 1.512 0 2.856.324 4.032.972a6.938 6.938 0 0 1 2.808 2.772c.696-1.104 1.644-2.004 2.844-2.7a7.684 7.684 0 0 1 3.924-1.044Zm11.253 10.224c0-2.064.384-3.876 1.152-5.436.792-1.56 1.86-2.76 3.204-3.6 1.344-.84 2.844-1.26 4.5-1.26 1.416 0 2.652.288 3.708.864 1.08.576 1.908 1.332 2.484 2.268v-2.844h6.156V929h-6.156v-2.844c-.6.936-1.44 1.692-2.52 2.268-1.056.576-2.292.864-3.708.864-1.632 0-3.12-.42-4.464-1.26-1.344-.864-2.412-2.076-3.204-3.636-.768-1.584-1.152-3.408-1.152-5.472Zm15.048.036c0-1.536-.432-2.748-1.296-3.636-.84-.888-1.872-1.332-3.096-1.332s-2.268.444-3.132 1.332c-.84.864-1.26 2.064-1.26 3.6s.42 2.76 1.26 3.672c.864.888 1.908 1.332 3.132 1.332 1.224 0 2.256-.444 3.096-1.332.864-.888 1.296-2.1 1.296-3.636ZM310.388 966.26c.72-1.104 1.62-1.968 2.7-2.592 1.08-.648 2.28-.972 3.6-.972v6.516h-1.692c-1.536 0-2.688.336-3.456 1.008-.768.648-1.152 1.8-1.152 3.456V983h-6.156v-20.088h6.156v3.348Zm28.178 6.372c0 .576-.036 1.176-.108 1.8h-13.932c.096 1.248.492 2.208 1.188 2.88.72.648 1.596.972 2.628.972 1.536 0 2.604-.648 3.204-1.944h6.552a8.874 8.874 0 0 1-1.836 3.564c-.864 1.056-1.956 1.884-3.276 2.484-1.32.6-2.796.9-4.428.9-1.968 0-3.72-.42-5.256-1.26-1.536-.84-2.736-2.04-3.6-3.6-.864-1.56-1.296-3.384-1.296-5.472 0-2.088.42-3.912 1.26-5.472.864-1.56 2.064-2.76 3.6-3.6 1.536-.84 3.3-1.26 5.292-1.26 1.944 0 3.672.408 5.184 1.224a8.672 8.672 0 0 1 3.528 3.492c.864 1.512 1.296 3.276 1.296 5.292Zm-6.3-1.62c0-1.056-.36-1.896-1.08-2.52-.72-.624-1.62-.936-2.7-.936-1.032 0-1.908.3-2.628.9-.696.6-1.128 1.452-1.296 2.556h7.704Zm17.72 12.276c-1.752 0-3.312-.3-4.68-.9-1.368-.6-2.448-1.416-3.24-2.448a6.58 6.58 0 0 1-1.332-3.528h6.084c.072.696.396 1.26.972 1.692.576.432 1.284.648 2.124.648.768 0 1.356-.144 1.764-.432.432-.312.648-.708.648-1.188 0-.576-.3-.996-.9-1.26-.6-.288-1.572-.6-2.916-.936-1.44-.336-2.64-.684-3.6-1.044a6.464 6.464 0 0 1-2.484-1.764c-.696-.816-1.044-1.908-1.044-3.276 0-1.152.312-2.196.936-3.132.648-.96 1.584-1.716 2.808-2.268 1.248-.552 2.724-.828 4.428-.828 2.52 0 4.5.624 5.94 1.872 1.464 1.248 2.304 2.904 2.52 4.968h-5.688c-.096-.696-.408-1.248-.936-1.656-.504-.408-1.176-.612-2.016-.612-.72 0-1.272.144-1.656.432-.384.264-.576.636-.576 1.116 0 .576.3 1.008.9 1.296.624.288 1.584.576 2.88.864 1.488.384 2.7.768 3.636 1.152.936.36 1.752.96 2.448 1.8.72.816 1.092 1.92 1.116 3.312a5.3 5.3 0 0 1-1.008 3.168c-.648.912-1.596 1.632-2.844 2.16-1.224.528-2.652.792-4.284.792Zm18.058-17.532c.6-.936 1.428-1.692 2.484-2.268 1.056-.576 2.292-.864 3.708-.864 1.656 0 3.156.42 4.5 1.26 1.344.84 2.4 2.04 3.168 3.6.792 1.56 1.188 3.372 1.188 5.436s-.396 3.888-1.188 5.472c-.768 1.56-1.824 2.772-3.168 3.636-1.344.84-2.844 1.26-4.5 1.26-1.392 0-2.628-.288-3.708-.864-1.056-.576-1.884-1.32-2.484-2.232v12.384h-6.156v-29.664h6.156v2.844Zm8.784 7.164c0-1.536-.432-2.736-1.296-3.6-.84-.888-1.884-1.332-3.132-1.332-1.224 0-2.268.444-3.132 1.332-.84.888-1.26 2.1-1.26 3.636s.42 2.748 1.26 3.636c.864.888 1.908 1.332 3.132 1.332 1.224 0 2.268-.444 3.132-1.332.864-.912 1.296-2.136 1.296-3.672Zm18.638 10.368c-1.968 0-3.744-.42-5.328-1.26-1.56-.84-2.796-2.04-3.708-3.6-.888-1.56-1.332-3.384-1.332-5.472 0-2.064.456-3.876 1.368-5.436.912-1.584 2.16-2.796 3.744-3.636 1.584-.84 3.36-1.26 5.328-1.26 1.968 0 3.744.42 5.328 1.26 1.584.84 2.832 2.052 3.744 3.636.912 1.56 1.368 3.372 1.368 5.436s-.468 3.888-1.404 5.472a9.258 9.258 0 0 1-3.78 3.6c-1.584.84-3.36 1.26-5.328 1.26Zm0-5.328c1.176 0 2.172-.432 2.988-1.296.84-.864 1.26-2.1 1.26-3.708s-.408-2.844-1.224-3.708c-.792-.864-1.776-1.296-2.952-1.296-1.2 0-2.196.432-2.988 1.296-.792.84-1.188 2.076-1.188 3.708 0 1.608.384 2.844 1.152 3.708.792.864 1.776 1.296 2.952 1.296Zm21.95 5.328c-1.752 0-3.312-.3-4.68-.9-1.368-.6-2.448-1.416-3.24-2.448a6.58 6.58 0 0 1-1.332-3.528h6.084c.072.696.396 1.26.972 1.692.576.432 1.284.648 2.124.648.768 0 1.356-.144 1.764-.432.432-.312.648-.708.648-1.188 0-.576-.3-.996-.9-1.26-.6-.288-1.572-.6-2.916-.936-1.44-.336-2.64-.684-3.6-1.044a6.464 6.464 0 0 1-2.484-1.764c-.696-.816-1.044-1.908-1.044-3.276 0-1.152.312-2.196.936-3.132.648-.96 1.584-1.716 2.808-2.268 1.248-.552 2.724-.828 4.428-.828 2.52 0 4.5.624 5.94 1.872 1.464 1.248 2.304 2.904 2.52 4.968h-5.688c-.096-.696-.408-1.248-.936-1.656-.504-.408-1.176-.612-2.016-.612-.72 0-1.272.144-1.656.432-.384.264-.576.636-.576 1.116 0 .576.3 1.008.9 1.296.624.288 1.584.576 2.88.864 1.488.384 2.7.768 3.636 1.152.936.36 1.752.96 2.448 1.8.72.816 1.092 1.92 1.116 3.312a5.3 5.3 0 0 1-1.008 3.168c-.648.912-1.596 1.632-2.844 2.16-1.224.528-2.652.792-4.284.792Zm23.098-5.508V983h-3.132c-2.232 0-3.972-.54-5.22-1.62-1.248-1.104-1.872-2.892-1.872-5.364v-7.992h-2.448v-5.112h2.448v-4.896h6.156v4.896h4.032v5.112h-4.032v8.064c0 .6.144 1.032.432 1.296.288.264.768.396 1.44.396h2.196Zm2.205-4.86c0-2.064.384-3.876 1.152-5.436.792-1.56 1.86-2.76 3.204-3.6 1.344-.84 2.844-1.26 4.5-1.26 1.416 0 2.652.288 3.708.864 1.08.576 1.908 1.332 2.484 2.268v-2.844h6.156V983h-6.156v-2.844c-.6.936-1.44 1.692-2.52 2.268-1.056.576-2.292.864-3.708.864-1.632 0-3.12-.42-4.464-1.26-1.344-.864-2.412-2.076-3.204-3.636-.768-1.584-1.152-3.408-1.152-5.472Zm15.048.036c0-1.536-.432-2.748-1.296-3.636-.84-.888-1.872-1.332-3.096-1.332s-2.268.444-3.132 1.332c-.84.864-1.26 2.064-1.26 3.6s.42 2.76 1.26 3.672c.864.888 1.908 1.332 3.132 1.332 1.224 0 2.256-.444 3.096-1.332.864-.888 1.296-2.1 1.296-3.636Zm13.49 10.332c-1.08 0-1.968-.312-2.664-.936a3.174 3.174 0 0 1-1.008-2.376c0-.96.336-1.764 1.008-2.412.696-.648 1.584-.972 2.664-.972 1.056 0 1.92.324 2.592.972.696.648 1.044 1.452 1.044 2.412 0 .936-.348 1.728-1.044 2.376-.672.624-1.536.936-2.592.936Z" fill="#fff"/><path opacity=".7" d="M313.736 1027.28h-7.296l-1.344 3.72h-2.304l6.048-16.63h2.52l6.024 16.63h-2.304l-1.344-3.72Zm-.624-1.78-3.024-8.44-3.024 8.44h6.048Zm9.092-5.23c.432-.75 1.072-1.37 1.92-1.87.864-.51 1.864-.77 3-.77 1.168 0 2.224.28 3.168.84.96.56 1.712 1.35 2.256 2.38.544 1.01.816 2.18.816 3.53 0 1.32-.272 2.51-.816 3.55-.544 1.04-1.296 1.85-2.256 2.42-.944.58-2 .87-3.168.87-1.12 0-2.112-.25-2.976-.75-.848-.51-1.496-1.14-1.944-1.89v8.66h-2.184v-19.39h2.184v2.42Zm8.928 4.11c0-1-.2-1.86-.6-2.6-.4-.73-.944-1.29-1.632-1.68a4.455 4.455 0 0 0-2.232-.57c-.8 0-1.544.2-2.232.6-.672.38-1.216.95-1.632 1.7-.4.74-.6 1.59-.6 2.57 0 .99.2 1.86.6 2.62.416.73.96 1.3 1.632 1.7.688.38 1.432.58 2.232.58.816 0 1.56-.2 2.232-.58.688-.4 1.232-.97 1.632-1.7.4-.76.6-1.64.6-2.64Zm7.291-4.4c.384-.75.928-1.33 1.632-1.75.72-.41 1.592-.62 2.616-.62v2.25h-.576c-2.448 0-3.672 1.33-3.672 3.99v7.15h-2.184v-13.15h2.184v2.13Zm18.769 3.94c0 .42-.024.86-.072 1.32h-10.512c.08 1.3.52 2.31 1.32 3.05.816.72 1.8 1.08 2.952 1.08.944 0 1.728-.22 2.352-.65a3.536 3.536 0 0 0 1.344-1.78h2.352a5.7 5.7 0 0 1-2.112 3.1c-1.056.78-2.368 1.18-3.936 1.18-1.248 0-2.368-.28-3.36-.84-.976-.56-1.744-1.36-2.304-2.38-.56-1.04-.84-2.24-.84-3.6 0-1.36.272-2.55.816-3.58a5.726 5.726 0 0 1 2.28-2.35c.992-.56 2.128-.84 3.408-.84 1.248 0 2.352.27 3.312.82a5.51 5.51 0 0 1 2.208 2.25c.528.95.792 2.02.792 3.22Zm-2.256-.46c0-.83-.184-1.54-.552-2.13a3.443 3.443 0 0 0-1.512-1.37c-.624-.32-1.32-.48-2.088-.48-1.104 0-2.048.35-2.832 1.06-.768.7-1.208 1.68-1.32 2.92h8.304Zm11.547-5.85c1.6 0 2.896.49 3.888 1.46.992.96 1.488 2.35 1.488 4.18v7.75h-2.16v-7.44c0-1.31-.328-2.31-.984-3-.656-.7-1.552-1.06-2.688-1.06-1.152 0-2.072.36-2.76 1.08-.672.72-1.008 1.77-1.008 3.15v7.27h-2.184v-13.15h2.184v1.87a4.383 4.383 0 0 1 1.752-1.56c.752-.37 1.576-.55 2.472-.55Zm8.127 6.77c0-1.35.272-2.52.816-3.53.544-1.03 1.288-1.82 2.232-2.38.96-.56 2.032-.84 3.216-.84a5.87 5.87 0 0 1 2.856.72c.88.47 1.552 1.08 2.016 1.85v-6.96h2.208V1031h-2.208v-2.47c-.432.78-1.072 1.43-1.92 1.94-.848.5-1.84.75-2.976.75-1.168 0-2.232-.29-3.192-.87-.944-.57-1.688-1.38-2.232-2.42-.544-1.04-.816-2.23-.816-3.55Zm11.136.02c0-.99-.2-1.86-.6-2.59-.4-.74-.944-1.3-1.632-1.68-.672-.4-1.416-.6-2.232-.6-.816 0-1.56.19-2.232.57-.672.39-1.208.95-1.608 1.68-.4.74-.6 1.6-.6 2.6s.2 1.88.6 2.64c.4.73.936 1.3 1.608 1.7.672.38 1.416.58 2.232.58.816 0 1.56-.2 2.232-.58.688-.4 1.232-.97 1.632-1.7.4-.76.6-1.63.6-2.62Zm5.083-.02c0-1.35.272-2.52.816-3.53.544-1.03 1.288-1.82 2.232-2.38.96-.56 2.024-.84 3.192-.84 1.152 0 2.152.25 3 .75.848.49 1.48 1.12 1.896 1.87v-2.4h2.208V1031h-2.208v-2.45c-.432.77-1.08 1.41-1.944 1.92-.848.5-1.84.75-2.976.75-1.168 0-2.224-.29-3.168-.87-.944-.57-1.688-1.38-2.232-2.42-.544-1.04-.816-2.23-.816-3.55Zm11.136.02c0-.99-.2-1.86-.6-2.59-.4-.74-.944-1.3-1.632-1.68-.672-.4-1.416-.6-2.232-.6-.816 0-1.56.19-2.232.57-.672.39-1.208.95-1.608 1.68-.4.74-.6 1.6-.6 2.6s.2 1.88.6 2.64c.4.73.936 1.3 1.608 1.7.672.38 1.416.58 2.232.58.816 0 1.56-.2 2.232-.58.688-.4 1.232-.97 1.632-1.7.4-.76.6-1.63.6-2.62Zm24.297-.48c0 .42-.024.86-.072 1.32h-10.512c.08 1.3.52 2.31 1.32 3.05.816.72 1.8 1.08 2.952 1.08.944 0 1.728-.22 2.352-.65a3.536 3.536 0 0 0 1.344-1.78h2.352a5.7 5.7 0 0 1-2.112 3.1c-1.056.78-2.368 1.18-3.936 1.18-1.248 0-2.368-.28-3.36-.84-.976-.56-1.744-1.36-2.304-2.38-.56-1.04-.84-2.24-.84-3.6 0-1.36.272-2.55.816-3.58a5.726 5.726 0 0 1 2.28-2.35c.992-.56 2.128-.84 3.408-.84 1.248 0 2.352.27 3.312.82a5.51 5.51 0 0 1 2.208 2.25c.528.95.792 2.02.792 3.22Zm-2.256-.46c0-.83-.184-1.54-.552-2.13a3.443 3.443 0 0 0-1.512-1.37c-.624-.32-1.32-.48-2.088-.48-1.104 0-2.048.35-2.832 1.06-.768.7-1.208 1.68-1.32 2.92h8.304Zm10.721.94c0-1.36.272-2.54.816-3.55.544-1.03 1.296-1.82 2.256-2.38.976-.56 2.088-.84 3.336-.84 1.616 0 2.944.39 3.984 1.18 1.056.78 1.752 1.87 2.088 3.26h-2.352c-.224-.8-.664-1.43-1.32-1.89-.64-.47-1.44-.7-2.4-.7-1.248 0-2.256.43-3.024 1.3-.768.84-1.152 2.05-1.152 3.62 0 1.58.384 2.81 1.152 3.67.768.87 1.776 1.3 3.024 1.3.96 0 1.76-.23 2.4-.67.64-.45 1.08-1.09 1.32-1.92h2.352c-.352 1.34-1.056 2.42-2.112 3.24-1.056.8-2.376 1.2-3.96 1.2-1.248 0-2.36-.28-3.336-.84-.96-.56-1.712-1.36-2.256-2.38-.544-1.02-.816-2.22-.816-3.6Zm21.13 6.82c-1.232 0-2.352-.28-3.36-.84-.992-.56-1.776-1.36-2.352-2.38-.56-1.04-.84-2.24-.84-3.6 0-1.34.288-2.53.864-3.55.592-1.04 1.392-1.83 2.4-2.38 1.008-.56 2.136-.84 3.384-.84 1.248 0 2.376.28 3.384.84 1.008.55 1.8 1.33 2.376 2.35.592 1.03.888 2.22.888 3.58 0 1.36-.304 2.56-.912 3.6a6.215 6.215 0 0 1-2.424 2.38c-1.024.56-2.16.84-3.408.84Zm0-1.92c.784 0 1.52-.19 2.208-.56.688-.36 1.24-.92 1.656-1.65.432-.74.648-1.63.648-2.69s-.208-1.95-.624-2.69c-.416-.73-.96-1.28-1.632-1.63a4.45 4.45 0 0 0-2.184-.55c-.8 0-1.536.18-2.208.55-.656.35-1.184.9-1.584 1.63-.4.74-.6 1.63-.6 2.69 0 1.07.192 1.98.576 2.71.4.74.928 1.29 1.584 1.66a4.52 4.52 0 0 0 2.16.53Zm25.432-11.69c1.024 0 1.936.21 2.736.65.8.41 1.432 1.04 1.896 1.89.464.85.696 1.88.696 3.1v7.75h-2.16v-7.44c0-1.31-.328-2.31-.984-3-.64-.7-1.512-1.06-2.616-1.06-1.136 0-2.04.37-2.712 1.11-.672.72-1.008 1.77-1.008 3.14v7.25h-2.16v-7.44c0-1.31-.328-2.31-.984-3-.64-.7-1.512-1.06-2.616-1.06-1.136 0-2.04.37-2.712 1.11-.672.72-1.008 1.77-1.008 3.14v7.25h-2.184v-13.15h2.184v1.89a4.398 4.398 0 0 1 1.728-1.58c.736-.37 1.544-.55 2.424-.55 1.104 0 2.08.25 2.928.74.848.5 1.48 1.23 1.896 2.19.368-.93.976-1.65 1.824-2.16.848-.52 1.792-.77 2.832-.77Zm11.095 2.66c.432-.75 1.072-1.37 1.92-1.87.864-.51 1.864-.77 3-.77 1.168 0 2.224.28 3.168.84.96.56 1.712 1.35 2.256 2.38.544 1.01.816 2.18.816 3.53 0 1.32-.272 2.51-.816 3.55-.544 1.04-1.296 1.85-2.256 2.42-.944.58-2 .87-3.168.87-1.12 0-2.112-.25-2.976-.75-.848-.51-1.496-1.14-1.944-1.89v8.66H490.2v-19.39h2.184v2.42Zm8.928 4.11c0-1-.2-1.86-.6-2.6-.4-.73-.944-1.29-1.632-1.68a4.455 4.455 0 0 0-2.232-.57c-.8 0-1.544.2-2.232.6-.672.38-1.216.95-1.632 1.7-.4.74-.6 1.59-.6 2.57 0 .99.2 1.86.6 2.62.416.73.96 1.3 1.632 1.7.688.38 1.432.58 2.232.58.816 0 1.56-.2 2.232-.58.688-.4 1.232-.97 1.632-1.7.4-.76.6-1.64.6-2.64Zm4.29 0c0-1.35.272-2.52.816-3.53.544-1.03 1.288-1.82 2.232-2.38.96-.56 2.024-.84 3.192-.84 1.152 0 2.152.25 3 .75.848.49 1.48 1.12 1.896 1.87v-2.4h2.208V1031h-2.208v-2.45c-.432.77-1.08 1.41-1.944 1.92-.848.5-1.84.75-2.976.75-1.168 0-2.224-.29-3.168-.87-.944-.57-1.688-1.38-2.232-2.42-.544-1.04-.816-2.23-.816-3.55Zm11.136.02c0-.99-.2-1.86-.6-2.59-.4-.74-.944-1.3-1.632-1.68-.672-.4-1.416-.6-2.232-.6-.816 0-1.56.19-2.232.57-.672.39-1.208.95-1.608 1.68-.4.74-.6 1.6-.6 2.6s.2 1.88.6 2.64c.4.73.936 1.3 1.608 1.7.672.38 1.416.58 2.232.58.816 0 1.56-.2 2.232-.58.688-.4 1.232-.97 1.632-1.7.4-.76.6-1.63.6-2.62Zm8.083-4.42c.384-.75.928-1.33 1.632-1.75.72-.41 1.592-.62 2.616-.62v2.25h-.576c-2.448 0-3.672 1.33-3.672 3.99v7.15h-2.184v-13.15h2.184v2.13Zm9.433-.33v7.75c0 .64.136 1.1.408 1.37.272.25.744.38 1.416.38h1.608v1.85h-1.968c-1.216 0-2.128-.28-2.736-.84-.608-.56-.912-1.48-.912-2.76v-7.75h-1.704v-1.8h1.704v-3.31h2.184v3.31h3.432v1.8h-3.432Zm7.206-3.94c-.416 0-.768-.14-1.056-.43a1.442 1.442 0 0 1-.432-1.06c0-.41.144-.76.432-1.05.288-.29.64-.43 1.056-.43.4 0 .736.14 1.008.43.288.29.432.64.432 1.05 0 .42-.144.77-.432 1.06-.272.29-.608.43-1.008.43Zm1.056 2.14V1031h-2.184v-13.15h2.184Zm5.907-4.61V1031h-2.184v-17.76h2.184Zm10.25 4.37c.992 0 1.888.21 2.688.65.8.41 1.424 1.04 1.872 1.89.464.85.696 1.88.696 3.1v7.75h-2.16v-7.44c0-1.31-.328-2.31-.984-3-.656-.7-1.552-1.06-2.688-1.06-1.152 0-2.072.36-2.76 1.08-.672.72-1.008 1.77-1.008 3.15v7.27h-2.184v-17.76h2.184v6.48a4.347 4.347 0 0 1 1.776-1.56c.768-.37 1.624-.55 2.568-.55Zm20.823 6.31c0 .42-.024.86-.072 1.32h-10.512c.08 1.3.52 2.31 1.32 3.05.816.72 1.8 1.08 2.952 1.08.944 0 1.728-.22 2.352-.65a3.536 3.536 0 0 0 1.344-1.78h2.352a5.7 5.7 0 0 1-2.112 3.1c-1.056.78-2.368 1.18-3.936 1.18-1.248 0-2.368-.28-3.36-.84-.976-.56-1.744-1.36-2.304-2.38-.56-1.04-.84-2.24-.84-3.6 0-1.36.272-2.55.816-3.58a5.726 5.726 0 0 1 2.28-2.35c.992-.56 2.128-.84 3.408-.84 1.248 0 2.352.27 3.312.82a5.51 5.51 0 0 1 2.208 2.25c.528.95.792 2.02.792 3.22Zm-2.256-.46c0-.83-.184-1.54-.552-2.13a3.443 3.443 0 0 0-1.512-1.37c-.624-.32-1.32-.48-2.088-.48-1.104 0-2.048.35-2.832 1.06-.768.7-1.208 1.68-1.32 2.92h8.304Zm10.722.94c0-1.36.272-2.54.816-3.55.544-1.03 1.296-1.82 2.256-2.38.976-.56 2.088-.84 3.336-.84 1.616 0 2.944.39 3.984 1.18 1.056.78 1.752 1.87 2.088 3.26h-2.352c-.224-.8-.664-1.43-1.32-1.89-.64-.47-1.44-.7-2.4-.7-1.248 0-2.256.43-3.024 1.3-.768.84-1.152 2.05-1.152 3.62 0 1.58.384 2.81 1.152 3.67.768.87 1.776 1.3 3.024 1.3.96 0 1.76-.23 2.4-.67.64-.45 1.08-1.09 1.32-1.92h2.352c-.352 1.34-1.056 2.42-2.112 3.24-1.056.8-2.376 1.2-3.96 1.2-1.248 0-2.36-.28-3.336-.84-.96-.56-1.712-1.36-2.256-2.38-.544-1.02-.816-2.22-.816-3.6Zm21.13 6.82c-1.232 0-2.352-.28-3.36-.84-.992-.56-1.776-1.36-2.352-2.38-.56-1.04-.84-2.24-.84-3.6 0-1.34.288-2.53.864-3.55.592-1.04 1.392-1.83 2.4-2.38 1.008-.56 2.136-.84 3.384-.84 1.248 0 2.376.28 3.384.84 1.008.55 1.8 1.33 2.376 2.35.592 1.03.888 2.22.888 3.58 0 1.36-.304 2.56-.912 3.6a6.215 6.215 0 0 1-2.424 2.38c-1.024.56-2.16.84-3.408.84Zm0-1.92c.784 0 1.52-.19 2.208-.56.688-.36 1.24-.92 1.656-1.65.432-.74.648-1.63.648-2.69s-.208-1.95-.624-2.69c-.416-.73-.96-1.28-1.632-1.63a4.45 4.45 0 0 0-2.184-.55c-.8 0-1.536.18-2.208.55-.656.35-1.184.9-1.584 1.63-.4.74-.6 1.63-.6 2.69 0 1.07.192 1.98.576 2.71.4.74.928 1.29 1.584 1.66a4.52 4.52 0 0 0 2.16.53Zm16.023-11.69c1.6 0 2.896.49 3.888 1.46.992.96 1.488 2.35 1.488 4.18v7.75h-2.16v-7.44c0-1.31-.328-2.31-.984-3-.656-.7-1.552-1.06-2.688-1.06-1.152 0-2.072.36-2.76 1.08-.672.72-1.008 1.77-1.008 3.15v7.27h-2.184v-13.15h2.184v1.87a4.383 4.383 0 0 1 1.752-1.56c.752-.37 1.576-.55 2.472-.55Zm15.472 0c.992 0 1.888.21 2.688.65.8.41 1.424 1.04 1.872 1.89.464.85.696 1.88.696 3.1v7.75h-2.16v-7.44c0-1.31-.328-2.31-.984-3-.656-.7-1.552-1.06-2.688-1.06-1.152 0-2.072.36-2.76 1.08-.672.72-1.008 1.77-1.008 3.15v7.27h-2.184v-17.76h2.184v6.48a4.347 4.347 0 0 1 1.776-1.56c.768-.37 1.624-.55 2.568-.55Zm20.824 6.31c0 .42-.024.86-.072 1.32h-10.512c.08 1.3.52 2.31 1.32 3.05.816.72 1.8 1.08 2.952 1.08.944 0 1.728-.22 2.352-.65a3.536 3.536 0 0 0 1.344-1.78h2.352a5.7 5.7 0 0 1-2.112 3.1c-1.056.78-2.368 1.18-3.936 1.18-1.248 0-2.368-.28-3.36-.84-.976-.56-1.744-1.36-2.304-2.38-.56-1.04-.84-2.24-.84-3.6 0-1.36.272-2.55.816-3.58a5.726 5.726 0 0 1 2.28-2.35c.992-.56 2.128-.84 3.408-.84 1.248 0 2.352.27 3.312.82a5.51 5.51 0 0 1 2.208 2.25c.528.95.792 2.02.792 3.22Zm-2.256-.46c0-.83-.184-1.54-.552-2.13a3.443 3.443 0 0 0-1.512-1.37c-.624-.32-1.32-.48-2.088-.48-1.104 0-2.048.35-2.832 1.06-.768.7-1.208 1.68-1.32 2.92h8.304Zm4.322.94c0-1.36.272-2.54.816-3.55.544-1.03 1.296-1.82 2.256-2.38.976-.56 2.088-.84 3.336-.84 1.616 0 2.944.39 3.984 1.18 1.056.78 1.752 1.87 2.088 3.26h-2.352c-.224-.8-.664-1.43-1.32-1.89-.64-.47-1.44-.7-2.4-.7-1.248 0-2.256.43-3.024 1.3-.768.84-1.152 2.05-1.152 3.62 0 1.58.384 2.81 1.152 3.67.768.87 1.776 1.3 3.024 1.3.96 0 1.76-.23 2.4-.67.64-.45 1.08-1.09 1.32-1.92h2.352c-.352 1.34-1.056 2.42-2.112 3.24-1.056.8-2.376 1.2-3.96 1.2-1.248 0-2.36-.28-3.336-.84-.96-.56-1.712-1.36-2.256-2.38-.544-1.02-.816-2.22-.816-3.6Zm16.522-8.69c-.416 0-.768-.14-1.056-.43a1.442 1.442 0 0 1-.432-1.06c0-.41.144-.76.432-1.05.288-.29.64-.43 1.056-.43.4 0 .736.14 1.008.43.288.29.432.64.432 1.05 0 .42-.144.77-.432 1.06-.272.29-.608.43-1.008.43Zm1.056 2.14V1031h-2.184v-13.15h2.184Zm19.539-.24c1.024 0 1.936.21 2.736.65.8.41 1.432 1.04 1.896 1.89.464.85.696 1.88.696 3.1v7.75h-2.16v-7.44c0-1.31-.328-2.31-.984-3-.64-.7-1.512-1.06-2.616-1.06-1.136 0-2.04.37-2.712 1.11-.672.72-1.008 1.77-1.008 3.14v7.25h-2.16v-7.44c0-1.31-.328-2.31-.984-3-.64-.7-1.512-1.06-2.616-1.06-1.136 0-2.04.37-2.712 1.11-.672.72-1.008 1.77-1.008 3.14v7.25h-2.184v-13.15h2.184v1.89a4.398 4.398 0 0 1 1.728-1.58c.736-.37 1.544-.55 2.424-.55 1.104 0 2.08.25 2.928.74.848.5 1.48 1.23 1.896 2.19.368-.93.976-1.65 1.824-2.16.848-.52 1.792-.77 2.832-.77Zm20.91 6.31c0 .42-.024.86-.072 1.32H710.92c.08 1.3.52 2.31 1.32 3.05.816.72 1.8 1.08 2.952 1.08.944 0 1.728-.22 2.352-.65a3.536 3.536 0 0 0 1.344-1.78h2.352a5.7 5.7 0 0 1-2.112 3.1c-1.056.78-2.368 1.18-3.936 1.18-1.248 0-2.368-.28-3.36-.84-.976-.56-1.744-1.36-2.304-2.38-.56-1.04-.84-2.24-.84-3.6 0-1.36.272-2.55.816-3.58a5.726 5.726 0 0 1 2.28-2.35c.992-.56 2.128-.84 3.408-.84 1.248 0 2.352.27 3.312.82a5.51 5.51 0 0 1 2.208 2.25c.528.95.792 2.02.792 3.22Zm-2.256-.46c0-.83-.184-1.54-.552-2.13a3.443 3.443 0 0 0-1.512-1.37c-.624-.32-1.32-.48-2.088-.48-1.104 0-2.048.35-2.832 1.06-.768.7-1.208 1.68-1.32 2.92h8.304Zm11.547-5.85c1.6 0 2.896.49 3.888 1.46.992.96 1.488 2.35 1.488 4.18v7.75h-2.16v-7.44c0-1.31-.328-2.31-.984-3-.656-.7-1.552-1.06-2.688-1.06-1.152 0-2.072.36-2.76 1.08-.672.72-1.008 1.77-1.008 3.15v7.27h-2.184v-13.15h2.184v1.87a4.383 4.383 0 0 1 1.752-1.56c.752-.37 1.576-.55 2.472-.55Zm11.608 2.04v7.75c0 .64.136 1.1.408 1.37.272.25.744.38 1.416.38h1.608v1.85h-1.968c-1.216 0-2.128-.28-2.736-.84-.608-.56-.912-1.48-.912-2.76v-7.75h-1.704v-1.8h1.704v-3.31h2.184v3.31h3.432v1.8h-3.432Zm11.814 11.57c-1.232 0-2.352-.28-3.36-.84-.992-.56-1.776-1.36-2.352-2.38-.56-1.04-.84-2.24-.84-3.6 0-1.34.288-2.53.864-3.55.592-1.04 1.392-1.83 2.4-2.38 1.008-.56 2.136-.84 3.384-.84 1.248 0 2.376.28 3.384.84 1.008.55 1.8 1.33 2.376 2.35.592 1.03.888 2.22.888 3.58 0 1.36-.304 2.56-.912 3.6a6.215 6.215 0 0 1-2.424 2.38c-1.024.56-2.16.84-3.408.84Zm0-1.92c.784 0 1.52-.19 2.208-.56.688-.36 1.24-.92 1.656-1.65.432-.74.648-1.63.648-2.69s-.208-1.95-.624-2.69c-.416-.73-.96-1.28-1.632-1.63a4.45 4.45 0 0 0-2.184-.55c-.8 0-1.536.18-2.208.55-.656.35-1.184.9-1.584 1.63-.4.74-.6 1.63-.6 2.69 0 1.07.192 1.98.576 2.71.4.74.928 1.29 1.584 1.66a4.52 4.52 0 0 0 2.16.53Zm-451.185 31.1c0-1.36.272-2.54.816-3.55.544-1.03 1.296-1.82 2.256-2.38.976-.56 2.088-.84 3.336-.84 1.616 0 2.944.39 3.984 1.18 1.056.78 1.752 1.87 2.088 3.26h-2.352c-.224-.8-.664-1.43-1.32-1.89-.64-.47-1.44-.7-2.4-.7-1.248 0-2.256.43-3.024 1.3-.768.84-1.152 2.05-1.152 3.62 0 1.58.384 2.81 1.152 3.67.768.87 1.776 1.3 3.024 1.3.96 0 1.76-.23 2.4-.67.64-.45 1.08-1.09 1.32-1.92h2.352c-.352 1.34-1.056 2.42-2.112 3.24-1.056.8-2.376 1.2-3.96 1.2-1.248 0-2.36-.28-3.336-.84-.96-.56-1.712-1.36-2.256-2.38-.544-1.02-.816-2.22-.816-3.6Zm21.13 6.82c-1.232 0-2.352-.28-3.36-.84-.992-.56-1.776-1.36-2.352-2.38-.56-1.04-.84-2.24-.84-3.6 0-1.34.288-2.53.864-3.55.592-1.04 1.392-1.83 2.4-2.38 1.008-.56 2.136-.84 3.384-.84 1.248 0 2.376.28 3.384.84 1.008.55 1.8 1.33 2.376 2.35.592 1.03.888 2.22.888 3.58 0 1.36-.304 2.56-.912 3.6a6.215 6.215 0 0 1-2.424 2.38c-1.024.56-2.16.84-3.408.84Zm0-1.92c.784 0 1.52-.19 2.208-.56.688-.36 1.24-.92 1.656-1.65.432-.74.648-1.63.648-2.69s-.208-1.95-.624-2.69c-.416-.73-.96-1.28-1.632-1.63a4.45 4.45 0 0 0-2.184-.55c-.8 0-1.536.18-2.208.55-.656.35-1.184.9-1.584 1.63-.4.74-.6 1.63-.6 2.69 0 1.07.192 1.98.576 2.71.4.74.928 1.29 1.584 1.66a4.52 4.52 0 0 0 2.16.53Zm25.432-11.69c1.024 0 1.936.21 2.736.65.8.41 1.432 1.04 1.896 1.89.464.85.696 1.88.696 3.1v7.75h-2.16v-7.44c0-1.31-.328-2.31-.984-3-.64-.7-1.512-1.06-2.616-1.06-1.136 0-2.04.37-2.712 1.11-.672.72-1.008 1.77-1.008 3.14v7.25h-2.16v-7.44c0-1.31-.328-2.31-.984-3-.64-.7-1.512-1.06-2.616-1.06-1.136 0-2.04.37-2.712 1.11-.672.72-1.008 1.77-1.008 3.14v7.25h-2.184v-13.15h2.184v1.89a4.398 4.398 0 0 1 1.728-1.58c.736-.37 1.544-.55 2.424-.55 1.104 0 2.08.25 2.928.74.848.5 1.48 1.23 1.896 2.19.368-.93.976-1.65 1.824-2.16.848-.52 1.792-.77 2.832-.77Zm21.045 13.61c-1.232 0-2.352-.28-3.36-.84-.992-.56-1.776-1.36-2.352-2.38-.56-1.04-.84-2.24-.84-3.6 0-1.34.288-2.53.864-3.55.592-1.04 1.392-1.83 2.4-2.38 1.008-.56 2.136-.84 3.384-.84 1.248 0 2.376.28 3.384.84 1.008.55 1.8 1.33 2.376 2.35.592 1.03.888 2.22.888 3.58 0 1.36-.304 2.56-.912 3.6a6.215 6.215 0 0 1-2.424 2.38c-1.024.56-2.16.84-3.408.84Zm0-1.92c.784 0 1.52-.19 2.208-.56.688-.36 1.24-.92 1.656-1.65.432-.74.648-1.63.648-2.69s-.208-1.95-.624-2.69c-.416-.73-.96-1.28-1.632-1.63a4.45 4.45 0 0 0-2.184-.55c-.8 0-1.536.18-2.208.55-.656.35-1.184.9-1.584 1.63-.4.74-.6 1.63-.6 2.69 0 1.07.192 1.98.576 2.71.4.74.928 1.29 1.584 1.66a4.52 4.52 0 0 0 2.16.53Zm21.279-11.45V1067h-2.184v-1.94c-.416.67-1 1.2-1.752 1.58-.736.37-1.552.55-2.448.55-1.024 0-1.944-.21-2.76-.62-.816-.43-1.464-1.07-1.944-1.92-.464-.85-.696-1.88-.696-3.1v-7.7h2.16v7.41c0 1.3.328 2.3.984 3 .656.69 1.552 1.04 2.688 1.04 1.168 0 2.088-.36 2.76-1.08.672-.72 1.008-1.77 1.008-3.15v-7.22h2.184Zm6.352 1.8v7.75c0 .64.136 1.1.408 1.37.272.25.744.38 1.416.38h1.608v1.85h-1.968c-1.216 0-2.128-.28-2.736-.84-.608-.56-.912-1.48-.912-2.76v-7.75h-1.704v-1.8h1.704v-3.31h2.184v3.31h3.432v1.8h-3.432Zm8.262.33c.384-.75.928-1.33 1.632-1.75.72-.41 1.592-.62 2.616-.62v2.25h-.576c-2.448 0-3.672 1.33-3.672 3.99v7.15h-2.184v-13.15h2.184v2.13Zm5.953 4.4c0-1.35.272-2.52.816-3.53.544-1.03 1.288-1.82 2.232-2.38.96-.56 2.024-.84 3.192-.84 1.152 0 2.152.25 3 .75.848.49 1.48 1.12 1.896 1.87v-2.4h2.208V1067h-2.208v-2.45c-.432.77-1.08 1.41-1.944 1.92-.848.5-1.84.75-2.976.75-1.168 0-2.224-.29-3.168-.87-.944-.57-1.688-1.38-2.232-2.42-.544-1.04-.816-2.23-.816-3.55Zm11.136.02c0-.99-.2-1.86-.6-2.59-.4-.74-.944-1.3-1.632-1.68-.672-.4-1.416-.6-2.232-.6-.816 0-1.56.19-2.232.57-.672.39-1.208.95-1.608 1.68-.4.74-.6 1.6-.6 2.6s.2 1.88.6 2.64c.4.73.936 1.3 1.608 1.7.672.38 1.416.58 2.232.58.816 0 1.56-.2 2.232-.58.688-.4 1.232-.97 1.632-1.7.4-.76.6-1.63.6-2.62Zm10.555 6.82c-1.008 0-1.912-.17-2.712-.51-.8-.35-1.432-.83-1.896-1.44a3.862 3.862 0 0 1-.768-2.13h2.256c.064.65.368 1.19.912 1.6.56.42 1.288.63 2.184.63.832 0 1.488-.19 1.968-.55.48-.37.72-.84.72-1.4 0-.57-.256-1-.768-1.27-.512-.29-1.304-.57-2.376-.84-.976-.25-1.776-.51-2.4-.77a4.54 4.54 0 0 1-1.584-1.17c-.432-.53-.648-1.22-.648-2.07 0-.67.2-1.28.6-1.84.4-.56.968-1 1.704-1.32.736-.34 1.576-.51 2.52-.51 1.456 0 2.632.37 3.528 1.11.896.73 1.376 1.74 1.44 3.02h-2.184c-.048-.69-.328-1.24-.84-1.66-.496-.41-1.168-.62-2.016-.62-.784 0-1.408.17-1.872.5-.464.34-.696.78-.696 1.32 0 .44.136.8.408 1.08.288.28.64.5 1.056.68.432.16 1.024.34 1.776.55.944.25 1.712.51 2.304.77.592.24 1.096.6 1.512 1.1.432.5.656 1.14.672 1.94 0 .72-.2 1.37-.6 1.95-.4.57-.968 1.03-1.704 1.37-.72.32-1.552.48-2.496.48Zm16.465-10.95c.432-.75 1.072-1.37 1.92-1.87.864-.51 1.864-.77 3-.77 1.168 0 2.224.28 3.168.84.96.56 1.712 1.35 2.256 2.38.544 1.01.816 2.18.816 3.53 0 1.32-.272 2.51-.816 3.55-.544 1.04-1.296 1.85-2.256 2.42-.944.58-2 .87-3.168.87-1.12 0-2.112-.25-2.976-.75-.848-.51-1.496-1.14-1.944-1.89v8.66h-2.184v-19.39h2.184v2.42Zm8.928 4.11c0-1-.2-1.86-.6-2.6-.4-.73-.944-1.29-1.632-1.68a4.455 4.455 0 0 0-2.232-.57c-.8 0-1.544.2-2.232.6-.672.38-1.216.95-1.632 1.7-.4.74-.6 1.59-.6 2.57 0 .99.2 1.86.6 2.62.416.73.96 1.3 1.632 1.7.688.38 1.432.58 2.232.58.816 0 1.56-.2 2.232-.58.688-.4 1.232-.97 1.632-1.7.4-.76.6-1.64.6-2.64Zm17.107-.46c0 .42-.024.86-.072 1.32h-10.512c.08 1.3.52 2.31 1.32 3.05.816.72 1.8 1.08 2.952 1.08.944 0 1.728-.22 2.352-.65a3.536 3.536 0 0 0 1.344-1.78h2.352a5.7 5.7 0 0 1-2.112 3.1c-1.056.78-2.368 1.18-3.936 1.18-1.248 0-2.368-.28-3.36-.84-.976-.56-1.744-1.36-2.304-2.38-.56-1.04-.84-2.24-.84-3.6 0-1.36.272-2.55.816-3.58a5.726 5.726 0 0 1 2.28-2.35c.992-.56 2.128-.84 3.408-.84 1.248 0 2.352.27 3.312.82a5.51 5.51 0 0 1 2.208 2.25c.528.95.792 2.02.792 3.22Zm-2.256-.46c0-.83-.184-1.54-.552-2.13a3.443 3.443 0 0 0-1.512-1.37c-.624-.32-1.32-.48-2.088-.48-1.104 0-2.048.35-2.832 1.06-.768.7-1.208 1.68-1.32 2.92h8.304Zm9.795 7.76c-1.008 0-1.912-.17-2.712-.51-.8-.35-1.432-.83-1.896-1.44a3.862 3.862 0 0 1-.768-2.13h2.256c.064.65.368 1.19.912 1.6.56.42 1.288.63 2.184.63.832 0 1.488-.19 1.968-.55.48-.37.72-.84.72-1.4 0-.57-.256-1-.768-1.27-.512-.29-1.304-.57-2.376-.84-.976-.25-1.776-.51-2.4-.77a4.54 4.54 0 0 1-1.584-1.17c-.432-.53-.648-1.22-.648-2.07 0-.67.2-1.28.6-1.84.4-.56.968-1 1.704-1.32.736-.34 1.576-.51 2.52-.51 1.456 0 2.632.37 3.528 1.11.896.73 1.376 1.74 1.44 3.02h-2.184c-.048-.69-.328-1.24-.84-1.66-.496-.41-1.168-.62-2.016-.62-.784 0-1.408.17-1.872.5-.464.34-.696.78-.696 1.32 0 .44.136.8.408 1.08.288.28.64.5 1.056.68.432.16 1.024.34 1.776.55.944.25 1.712.51 2.304.77.592.24 1.096.6 1.512 1.1.432.5.656 1.14.672 1.94 0 .72-.2 1.37-.6 1.95-.4.57-.968 1.03-1.704 1.37-.72.32-1.552.48-2.496.48Zm12.539 0c-1.008 0-1.912-.17-2.712-.51-.8-.35-1.432-.83-1.896-1.44a3.862 3.862 0 0 1-.768-2.13h2.256c.064.65.368 1.19.912 1.6.56.42 1.288.63 2.184.63.832 0 1.488-.19 1.968-.55.48-.37.72-.84.72-1.4 0-.57-.256-1-.768-1.27-.512-.29-1.304-.57-2.376-.84-.976-.25-1.776-.51-2.4-.77a4.54 4.54 0 0 1-1.584-1.17c-.432-.53-.648-1.22-.648-2.07 0-.67.2-1.28.6-1.84.4-.56.968-1 1.704-1.32.736-.34 1.576-.51 2.52-.51 1.456 0 2.632.37 3.528 1.11.896.73 1.376 1.74 1.44 3.02h-2.184c-.048-.69-.328-1.24-.84-1.66-.496-.41-1.168-.62-2.016-.62-.784 0-1.408.17-1.872.5-.464.34-.696.78-.696 1.32 0 .44.136.8.408 1.08.288.28.64.5 1.056.68.432.16 1.024.34 1.776.55.944.25 1.712.51 2.304.77.592.24 1.096.6 1.512 1.1.432.5.656 1.14.672 1.94 0 .72-.2 1.37-.6 1.95-.4.57-.968 1.03-1.704 1.37-.72.32-1.552.48-2.496.48Zm13.619 0c-1.232 0-2.352-.28-3.36-.84-.992-.56-1.776-1.36-2.352-2.38-.56-1.04-.84-2.24-.84-3.6 0-1.34.288-2.53.864-3.55.592-1.04 1.392-1.83 2.4-2.38 1.008-.56 2.136-.84 3.384-.84 1.248 0 2.376.28 3.384.84 1.008.55 1.8 1.33 2.376 2.35.592 1.03.888 2.22.888 3.58 0 1.36-.304 2.56-.912 3.6a6.215 6.215 0 0 1-2.424 2.38c-1.024.56-2.16.84-3.408.84Zm0-1.92c.784 0 1.52-.19 2.208-.56.688-.36 1.24-.92 1.656-1.65.432-.74.648-1.63.648-2.69s-.208-1.95-.624-2.69c-.416-.73-.96-1.28-1.632-1.63a4.45 4.45 0 0 0-2.184-.55c-.8 0-1.536.18-2.208.55-.656.35-1.184.9-1.584 1.63-.4.74-.6 1.63-.6 2.69 0 1.07.192 1.98.576 2.71.4.74.928 1.29 1.584 1.66a4.52 4.52 0 0 0 2.16.53Zm8.8-4.92c0-1.35.272-2.52.816-3.53.544-1.03 1.288-1.82 2.232-2.38.96-.56 2.024-.84 3.192-.84 1.152 0 2.152.25 3 .75.848.49 1.48 1.12 1.896 1.87v-2.4h2.208V1067h-2.208v-2.45c-.432.77-1.08 1.41-1.944 1.92-.848.5-1.84.75-2.976.75-1.168 0-2.224-.29-3.168-.87-.944-.57-1.688-1.38-2.232-2.42-.544-1.04-.816-2.23-.816-3.55Zm11.136.02c0-.99-.2-1.86-.6-2.59-.4-.74-.944-1.3-1.632-1.68-.672-.4-1.416-.6-2.232-.6-.816 0-1.56.19-2.232.57-.672.39-1.208.95-1.608 1.68-.4.74-.6 1.6-.6 2.6s.2 1.88.6 2.64c.4.73.936 1.3 1.608 1.7.672.38 1.416.58 2.232.58.816 0 1.56-.2 2.232-.58.688-.4 1.232-.97 1.632-1.7.4-.76.6-1.63.6-2.62Zm10.554 6.82c-1.008 0-1.912-.17-2.712-.51-.8-.35-1.432-.83-1.896-1.44a3.862 3.862 0 0 1-.768-2.13h2.256c.064.65.368 1.19.912 1.6.56.42 1.288.63 2.184.63.832 0 1.488-.19 1.968-.55.48-.37.72-.84.72-1.4 0-.57-.256-1-.768-1.27-.512-.29-1.304-.57-2.376-.84-.976-.25-1.776-.51-2.4-.77a4.54 4.54 0 0 1-1.584-1.17c-.432-.53-.648-1.22-.648-2.07 0-.67.2-1.28.6-1.84.4-.56.968-1 1.704-1.32.736-.34 1.576-.51 2.52-.51 1.456 0 2.632.37 3.528 1.11.896.73 1.376 1.74 1.44 3.02h-2.184c-.048-.69-.328-1.24-.84-1.66-.496-.41-1.168-.62-2.016-.62-.784 0-1.408.17-1.872.5-.464.34-.696.78-.696 1.32 0 .44.136.8.408 1.08.288.28.64.5 1.056.68.432.16 1.024.34 1.776.55.944.25 1.712.51 2.304.77.592.24 1.096.6 1.512 1.1.432.5.656 1.14.672 1.94 0 .72-.2 1.37-.6 1.95-.4.57-.968 1.03-1.704 1.37-.72.32-1.552.48-2.496.48Z" fill="#F8F8F8"/><rect x="1138" y="1167" width="320" height="50" rx="8" fill="#835AFD"/><path d="M1239.5 1184.5h3.33c.45 0 .87.18 1.18.49.31.31.49.73.49 1.18v11.66c0 .45-.18.87-.49 1.18-.31.31-.73.49-1.18.49h-3.33M1235.33 1196.17l4.17-4.17-4.17-4.17M1239.5 1192h-10" stroke="#FAFAFA" stroke-width="1.5" stroke-linecap="round" stroke-linejoin="round"/><path d="M1260.02 1188.35v3.27h3.84v1.48h-3.84v3.41h4.32v1.49h-6.14v-11.14h6.14v1.49h-4.32Zm11.02.69c.69 0 1.31.14 1.85.43.56.29.99.72 1.3 1.28.31.57.46 1.25.46 2.05v5.2h-1.8v-4.93c0-.79-.2-1.39-.6-1.81-.39-.42-.93-.64-1.61-.64s-1.23.22-1.63.64c-.4.42-.6 1.02-.6 1.81v4.93h-1.82v-8.82h1.82v1.01c.3-.36.68-.64 1.14-.85.47-.2.97-.3 1.49-.3Zm8.07 1.63v4.88c0 .33.07.57.22.72.16.14.43.21.8.21h1.12v1.52h-1.44c-.82 0-1.45-.19-1.88-.58-.44-.38-.66-1-.66-1.87v-4.88h-1.04v-1.49h1.04v-2.19h1.84v2.19h2.14v1.49h-2.14Zm5.65-.21c.27-.44.62-.79 1.05-1.04.45-.25.98-.38 1.59-.38v1.89h-.47c-.71 0-1.25.18-1.63.54-.36.36-.54.99-.54 1.89v4.64h-1.83v-8.82h1.83v1.28Zm3.71 3.09c0-.88.18-1.67.54-2.35.37-.68.88-1.21 1.51-1.58.64-.39 1.34-.58 2.11-.58.69 0 1.29.14 1.81.42.52.26.93.6 1.24 1v-1.28h1.84v8.82h-1.84v-1.31c-.31.41-.73.76-1.26 1.04s-1.14.41-1.82.41c-.76 0-1.46-.19-2.08-.57-.63-.4-1.14-.94-1.51-1.63-.36-.71-.54-1.5-.54-2.39Zm7.21.03c0-.6-.12-1.13-.38-1.58-.25-.45-.57-.79-.98-1.02-.4-.24-.84-.36-1.31-.36-.47 0-.91.12-1.31.36-.41.22-.74.56-.99 1-.25.44-.37.96-.37 1.57 0 .61.12 1.14.37 1.6.25.46.58.81.99 1.06.42.23.85.35 1.31.35.47 0 .91-.12 1.31-.35.41-.24.73-.58.98-1.03.26-.45.38-.99.38-1.6Zm6.06-3.12c.27-.44.62-.79 1.06-1.04.45-.25.97-.38 1.58-.38v1.89h-.46c-.72 0-1.26.18-1.63.54-.37.36-.55.99-.55 1.89v4.64h-1.82v-8.82h1.82v1.28Zm12.92-1.42c.7 0 1.32.14 1.86.43.55.29.99.72 1.3 1.28.3.57.46 1.25.46 2.05v5.2h-1.81v-4.93c0-.79-.2-1.39-.59-1.81-.4-.42-.93-.64-1.62-.64-.68 0-1.22.22-1.63.64-.39.42-.59 1.02-.59 1.81v4.93h-1.82v-8.82h1.82v1.01c.3-.36.68-.64 1.14-.85.46-.2.96-.3 1.48-.3Zm5.34 4.51c0-.88.18-1.67.54-2.35.38-.68.88-1.21 1.51-1.58.64-.39 1.34-.58 2.11-.58.69 0 1.29.14 1.81.42.52.26.93.6 1.24 1v-1.28h1.84v8.82h-1.84v-1.31c-.31.41-.73.76-1.26 1.04s-1.14.41-1.82.41c-.76 0-1.45-.19-2.08-.57-.63-.4-1.13-.94-1.51-1.63-.36-.71-.54-1.5-.54-2.39Zm7.21.03c0-.6-.12-1.13-.38-1.58-.25-.45-.57-.79-.98-1.02-.4-.24-.84-.36-1.31-.36-.47 0-.9.12-1.31.36-.41.22-.74.56-.99 1-.25.44-.37.96-.37 1.57 0 .61.12 1.14.37 1.6.25.46.58.81.99 1.06.42.23.85.35 1.31.35.47 0 .91-.12 1.31-.35.41-.24.73-.58.98-1.03.26-.45.38-.99.38-1.6Zm11.6 4.56c-.7 0-1.32-.12-1.88-.36-.54-.26-.97-.6-1.29-1.03-.32-.44-.49-.92-.51-1.45h1.88c.04.37.21.68.53.94.33.25.74.37 1.23.37.52 0 .91-.1 1.19-.29.29-.2.43-.46.43-.77 0-.33-.16-.57-.48-.73-.31-.16-.81-.34-1.49-.53a13.8 13.8 0 0 1-1.61-.53c-.42-.17-.78-.43-1.09-.78-.3-.36-.45-.82-.45-1.4 0-.47.14-.89.42-1.28.27-.39.67-.7 1.18-.92.52-.23 1.12-.34 1.79-.34 1 0 1.81.26 2.42.77.62.5.95 1.19.99 2.06h-1.82c-.04-.39-.2-.71-.48-.94-.29-.24-.68-.35-1.17-.35-.48 0-.85.09-1.11.27a.85.85 0 0 0-.38.72c0 .23.09.43.26.59.17.16.37.29.62.38.25.09.61.2 1.09.34.64.17 1.16.35 1.57.53.41.17.77.42 1.07.77.3.34.45.79.46 1.36 0 .5-.14.95-.41 1.34-.28.39-.68.7-1.19.93-.5.22-1.09.33-1.77.33Zm4.74-4.59c0-.88.18-1.67.54-2.35.37-.68.87-1.21 1.5-1.58a4 4 0 0 1 2.12-.58c.69 0 1.29.14 1.8.42.53.26.94.6 1.25 1v-1.28h1.84v8.82h-1.84v-1.31c-.31.41-.73.76-1.26 1.04-.54.28-1.14.41-1.83.41-.75 0-1.45-.19-2.08-.57a4.29 4.29 0 0 1-1.5-1.63c-.36-.71-.54-1.5-.54-2.39Zm7.21.03c0-.6-.13-1.13-.38-1.58-.25-.45-.57-.79-.98-1.02-.4-.24-.84-.36-1.31-.36-.47 0-.91.12-1.31.36-.41.22-.74.56-.99 1-.25.44-.37.96-.37 1.57 0 .61.12 1.14.37 1.6.25.46.58.81.99 1.06.41.23.85.35 1.31.35.47 0 .91-.12 1.31-.35.41-.24.73-.58.98-1.03.25-.45.38-.99.38-1.6Zm6.06-7.42V1198H1355v-11.84h1.82Zm1.79 7.39c0-.88.18-1.67.54-2.35.37-.68.88-1.21 1.51-1.58.64-.39 1.34-.58 2.11-.58.69 0 1.29.14 1.81.42.52.26.93.6 1.24 1v-1.28h1.84v8.82h-1.84v-1.31c-.31.41-.73.76-1.26 1.04s-1.14.41-1.82.41c-.76 0-1.46-.19-2.08-.57-.63-.4-1.14-.94-1.51-1.63-.36-.71-.54-1.5-.54-2.39Zm7.21.03c0-.6-.12-1.13-.38-1.58-.25-.45-.57-.79-.98-1.02-.4-.24-.84-.36-1.31-.36-.47 0-.91.12-1.31.36-.41.22-.74.56-.99 1-.25.44-.37.96-.37 1.57 0 .61.12 1.14.37 1.6.25.46.58.81.99 1.06.42.23.85.35 1.31.35.47 0 .91-.12 1.31-.35.41-.24.73-.58.98-1.03.26-.45.38-.99.38-1.6Z" fill="#FAFAFA"/><path d="M1158.7 1118.85c1.22 0 2.27.23 3.16.69.89.44 1.57 1.09 2.04 1.93.48.84.72 1.84.72 2.98s-.24 2.13-.72 2.97c-.47.84-1.15 1.48-2.04 1.92-.89.44-1.94.66-3.16.66h-3.47v-11.15h3.47Zm0 9.95c1.44 0 2.54-.38 3.3-1.14.76-.76 1.14-1.84 1.14-3.21 0-1.39-.39-2.47-1.16-3.25-.75-.78-1.85-1.17-3.28-1.17h-2.01v8.77h2.01Zm8.6-8.99c-.28 0-.52-.1-.71-.29a.967.967 0 0 1-.29-.7c0-.28.1-.52.29-.71.19-.19.43-.29.71-.29.26 0 .49.1.67.29.19.19.29.43.29.71 0 .27-.1.51-.29.7a.9.9 0 0 1-.67.29Zm.7 1.42v8.77h-1.46v-8.77h1.46Zm6.1-.14c.76 0 1.42.16 1.98.49.58.33 1 .75 1.28 1.25v-1.6h1.47v8.96c0 .8-.17 1.51-.51 2.13a3.59 3.59 0 0 1-1.47 1.47c-.63.35-1.37.53-2.21.53-1.15 0-2.11-.27-2.88-.82-.77-.54-1.22-1.28-1.36-2.22h1.44c.16.53.49.96.99 1.28.51.33 1.11.5 1.81.5.8 0 1.45-.25 1.95-.76.52-.5.77-1.2.77-2.11v-1.84c-.29.51-.71.94-1.28 1.28-.56.34-1.22.51-1.98.51-.78 0-1.49-.19-2.13-.57-.63-.39-1.13-.92-1.49-1.62-.36-.69-.54-1.48-.54-2.37 0-.89.18-1.68.54-2.35.36-.68.86-1.21 1.49-1.58.64-.38 1.35-.56 2.13-.56Zm3.26 4.51c0-.66-.13-1.24-.4-1.73-.26-.49-.63-.86-1.09-1.12-.44-.26-.94-.4-1.48-.4-.55 0-1.04.13-1.49.39-.45.25-.81.63-1.07 1.12-.27.49-.4 1.06-.4 1.72 0 .68.13 1.26.4 1.76.26.49.62.87 1.07 1.14.45.26.94.38 1.49.38.54 0 1.04-.12 1.48-.38.46-.27.83-.65 1.09-1.14.27-.5.4-1.08.4-1.74Zm4.69-5.79c-.28 0-.52-.1-.71-.29a.967.967 0 0 1-.29-.7c0-.28.1-.52.29-.71.19-.19.43-.29.71-.29.26 0 .49.1.67.29.19.19.29.43.29.71 0 .27-.1.51-.29.7a.9.9 0 0 1-.67.29Zm.7 1.42v8.77h-1.46v-8.77h1.46Zm4.26 1.2v5.17c0 .43.09.73.27.91.18.17.5.26.94.26h1.08v1.23h-1.32c-.81 0-1.41-.19-1.82-.56-.41-.37-.61-.99-.61-1.84v-5.17h-1.13v-1.2h1.13v-2.21h1.46v2.21h2.29v1.2h-2.29Zm12.05 2.85c0 .28-.02.57-.05.88H1192c.06.86.35 1.54.88 2.03.55.48 1.2.72 1.97.72.63 0 1.15-.14 1.57-.43.43-.3.73-.69.9-1.18h1.56c-.23.84-.7 1.53-1.4 2.06-.71.52-1.58.78-2.63.78-.83 0-1.58-.18-2.24-.56-.65-.37-1.16-.9-1.53-1.58-.38-.69-.56-1.49-.56-2.4 0-.91.18-1.7.54-2.38.36-.69.87-1.21 1.52-1.57.66-.38 1.42-.56 2.27-.56.83 0 1.57.18 2.21.54.64.36 1.13.87 1.47 1.51.35.63.53 1.34.53 2.14Zm-1.5-.3c0-.56-.13-1.03-.37-1.43-.25-.4-.58-.71-1.01-.91-.42-.21-.88-.32-1.39-.32-.74 0-1.37.23-1.89.7-.51.47-.81 1.12-.88 1.96h5.54Zm11.51 5.16c-.82 0-1.57-.18-2.24-.56a4.11 4.11 0 0 1-1.57-1.58c-.37-.69-.56-1.49-.56-2.4 0-.9.2-1.69.58-2.37.39-.69.93-1.22 1.6-1.58.67-.38 1.42-.56 2.26-.56.83 0 1.58.18 2.25.56.67.36 1.2.88 1.59 1.57.39.68.59 1.47.59 2.38 0 .91-.21 1.71-.61 2.4-.4.68-.93 1.21-1.62 1.58-.68.38-1.44.56-2.27.56Zm0-1.28c.52 0 1.01-.12 1.47-.36.46-.25.83-.62 1.11-1.11.29-.49.43-1.09.43-1.79s-.14-1.3-.42-1.79c-.27-.49-.64-.86-1.08-1.09-.45-.25-.94-.37-1.46-.37-.53 0-1.02.12-1.47.37-.44.23-.79.6-1.06 1.09-.27.49-.4 1.09-.4 1.79 0 .71.13 1.32.39 1.81s.61.86 1.05 1.1c.44.24.92.35 1.44.35Zm10.13-3.26c0-.91.18-1.7.55-2.37.36-.68.86-1.21 1.5-1.58.65-.38 1.39-.56 2.23-.56 1.07 0 1.96.26 2.65.78.71.52 1.17 1.25 1.39 2.18h-1.56a2.27 2.27 0 0 0-.88-1.27c-.43-.31-.96-.46-1.6-.46-.84 0-1.51.29-2.02.86-.51.57-.77 1.37-.77 2.42 0 1.06.26 1.87.77 2.45.51.57 1.18.86 2.02.86.64 0 1.17-.15 1.6-.45.42-.29.72-.72.88-1.28h1.56c-.23.9-.7 1.62-1.4 2.16-.71.54-1.59.8-2.64.8-.84 0-1.58-.18-2.23-.56-.64-.37-1.14-.9-1.5-1.58-.37-.68-.55-1.48-.55-2.4Zm14.09 4.54c-.82 0-1.57-.18-2.24-.56a4.11 4.11 0 0 1-1.57-1.58c-.37-.69-.56-1.49-.56-2.4 0-.9.19-1.69.58-2.37.39-.69.93-1.22 1.6-1.58.67-.38 1.42-.56 2.25-.56.84 0 1.59.18 2.26.56.67.36 1.2.88 1.58 1.57.4.68.6 1.47.6 2.38 0 .91-.21 1.71-.61 2.4-.4.68-.93 1.21-1.62 1.58-.68.38-1.44.56-2.27.56Zm0-1.28c.52 0 1.01-.12 1.47-.36.46-.25.83-.62 1.11-1.11.28-.49.43-1.09.43-1.79s-.14-1.3-.42-1.79c-.27-.49-.64-.86-1.09-1.09-.44-.25-.93-.37-1.45-.37-.53 0-1.03.12-1.47.37-.44.23-.79.6-1.06 1.09-.27.49-.4 1.09-.4 1.79 0 .71.13 1.32.38 1.81.27.49.62.86 1.06 1.1.44.24.92.35 1.44.35Zm1.63-10.22-3.41 1.82v-1.08l3.41-2v1.26Zm4.24 6.94c0-.89.18-1.68.54-2.35.36-.68.86-1.21 1.49-1.58.64-.38 1.35-.56 2.14-.56.69 0 1.32.16 1.91.48.58.31 1.03.72 1.34 1.23v-4.64h1.47V1130h-1.47v-1.65c-.29.52-.71.96-1.28 1.3-.56.33-1.23.49-1.98.49-.78 0-1.49-.19-2.13-.57-.63-.39-1.13-.92-1.49-1.62-.36-.69-.54-1.48-.54-2.37Zm7.42.02c0-.66-.13-1.24-.4-1.73a2.8 2.8 0 0 0-1.09-1.12c-.45-.26-.94-.4-1.49-.4-.54 0-1.04.13-1.48.39-.45.25-.81.63-1.08 1.12-.26.49-.4 1.06-.4 1.72 0 .68.14 1.26.4 1.76.27.49.63.87 1.08 1.14.44.26.94.38 1.48.38a2.9 2.9 0 0 0 1.49-.38c.46-.27.82-.65 1.09-1.14.27-.5.4-1.08.4-1.74Zm4.69-5.79c-.28 0-.52-.1-.71-.29a.967.967 0 0 1-.29-.7c0-.28.1-.52.29-.71.19-.19.43-.29.71-.29.26 0 .49.1.67.29.19.19.29.43.29.71 0 .27-.1.51-.29.7a.9.9 0 0 1-.67.29Zm.7 1.42v8.77h-1.46v-8.77h1.46Zm6.1-.14c.75 0 1.42.16 1.98.49.58.33 1 .75 1.28 1.25v-1.6h1.47v8.96c0 .8-.17 1.51-.51 2.13a3.59 3.59 0 0 1-1.47 1.47c-.63.35-1.37.53-2.21.53-1.15 0-2.11-.27-2.88-.82-.77-.54-1.22-1.28-1.36-2.22h1.44c.16.53.49.96.99 1.28.5.33 1.11.5 1.81.5.8 0 1.45-.25 1.95-.76.51-.5.77-1.2.77-2.11v-1.84c-.29.51-.71.94-1.28 1.28-.56.34-1.23.51-1.98.51-.78 0-1.49-.19-2.13-.57-.63-.39-1.13-.92-1.49-1.62-.36-.69-.54-1.48-.54-2.37 0-.89.18-1.68.54-2.35.36-.68.86-1.21 1.49-1.58.64-.38 1.35-.56 2.13-.56Zm3.26 4.51c0-.66-.13-1.24-.4-1.73a2.8 2.8 0 0 0-1.09-1.12c-.45-.26-.94-.4-1.49-.4-.54 0-1.04.13-1.48.39-.45.25-.81.63-1.08 1.12-.26.49-.4 1.06-.4 1.72 0 .68.14 1.26.4 1.76.27.49.63.87 1.08 1.14.44.26.94.38 1.48.38a2.9 2.9 0 0 0 1.49-.38c.46-.27.82-.65 1.09-1.14.27-.5.4-1.08.4-1.74Zm7.76 4.54c-.82 0-1.57-.18-2.24-.56-.66-.37-1.19-.9-1.57-1.58-.37-.69-.56-1.49-.56-2.4 0-.9.19-1.69.58-2.37.39-.69.92-1.22 1.6-1.58.67-.38 1.42-.56 2.25-.56.83 0 1.59.18 2.26.56.67.36 1.2.88 1.58 1.57.4.68.59 1.47.59 2.38 0 .91-.2 1.71-.6 2.4-.4.68-.94 1.21-1.62 1.58-.68.38-1.44.56-2.27.56Zm0-1.28c.52 0 1.01-.12 1.47-.36.46-.25.83-.62 1.1-1.11.29-.49.44-1.09.44-1.79s-.14-1.3-.42-1.79c-.28-.49-.64-.86-1.09-1.09-.45-.25-.93-.37-1.45-.37-.54 0-1.03.12-1.48.37-.43.23-.79.6-1.05 1.09-.27.49-.4 1.09-.4 1.79 0 .71.13 1.32.38 1.81.27.49.62.86 1.06 1.1.43.24.91.35 1.44.35Zm10.13-3.28c0-.89.18-1.68.54-2.35.37-.68.86-1.21 1.49-1.58.64-.38 1.36-.56 2.15-.56.68 0 1.31.16 1.9.48.59.31 1.03.72 1.34 1.23v-4.64h1.48V1130h-1.48v-1.65c-.28.52-.71.96-1.28 1.3-.56.33-1.22.49-1.98.49-.78 0-1.49-.19-2.13-.57-.63-.39-1.12-.92-1.49-1.62-.36-.69-.54-1.48-.54-2.37Zm7.42.02c0-.66-.13-1.24-.4-1.73-.26-.49-.63-.86-1.08-1.12-.45-.26-.95-.4-1.49-.4-.55 0-1.04.13-1.49.39-.45.25-.81.63-1.07 1.12-.27.49-.4 1.06-.4 1.72 0 .68.13 1.26.4 1.76.26.49.62.87 1.07 1.14.45.26.94.38 1.49.38.54 0 1.04-.12 1.49-.38.45-.27.82-.65 1.08-1.14.27-.5.4-1.08.4-1.74Zm3.39-.02c0-.89.18-1.68.55-2.35.36-.68.85-1.21 1.48-1.58.64-.38 1.35-.56 2.13-.56.77 0 1.44.16 2 .49.57.33.99.75 1.27 1.25v-1.6h1.47v8.77h-1.47v-1.63c-.29.51-.72.94-1.3 1.28-.57.33-1.23.49-1.98.49-.78 0-1.49-.19-2.12-.57-.63-.39-1.12-.92-1.48-1.62-.37-.69-.55-1.48-.55-2.37Zm7.43.02c0-.66-.14-1.24-.4-1.73a2.8 2.8 0 0 0-1.09-1.12c-.45-.26-.95-.4-1.49-.4s-1.04.13-1.49.39c-.45.25-.8.63-1.07 1.12-.27.49-.4 1.06-.4 1.72 0 .68.13 1.26.4 1.76.27.49.62.87 1.07 1.14.45.26.95.38 1.49.38s1.04-.12 1.49-.38c.46-.27.82-.65 1.09-1.14.26-.5.4-1.08.4-1.74Zm11.3 4.54c-.67 0-1.28-.11-1.81-.33-.53-.24-.95-.56-1.26-.96-.31-.42-.48-.89-.52-1.43h1.51c.04.44.24.8.61 1.08.37.27.85.41 1.45.41.56 0 .99-.12 1.31-.37.32-.24.48-.55.48-.92 0-.39-.17-.67-.51-.85-.34-.19-.87-.38-1.58-.56-.65-.17-1.19-.34-1.6-.51-.41-.19-.76-.45-1.06-.79-.29-.35-.43-.81-.43-1.37 0-.45.13-.86.4-1.24.27-.37.65-.66 1.14-.88.49-.22 1.05-.33 1.68-.33.97 0 1.75.24 2.35.73.6.49.92 1.17.96 2.02h-1.46c-.03-.46-.22-.83-.56-1.1-.33-.28-.78-.42-1.34-.42-.52 0-.94.11-1.25.34-.31.22-.46.51-.46.88 0 .28.09.52.27.72.19.18.42.33.7.44.29.11.68.23 1.19.37.63.17 1.14.34 1.53.51.4.16.73.41 1.01.74.29.33.44.76.45 1.3 0 .48-.14.91-.4 1.29-.27.39-.65.69-1.14.91-.48.22-1.03.32-1.66.32Zm4.71-4.56c0-.89.18-1.68.54-2.35.37-.68.86-1.21 1.49-1.58.64-.38 1.35-.56 2.13-.56.77 0 1.43.16 2 .49.56.33.99.75 1.26 1.25v-1.6h1.48v8.77h-1.48v-1.63c-.28.51-.72.94-1.29 1.28-.57.33-1.23.49-1.99.49-.78 0-1.48-.19-2.11-.57-.63-.39-1.12-.92-1.49-1.62-.36-.69-.54-1.48-.54-2.37Zm7.42.02c0-.66-.13-1.24-.4-1.73-.26-.49-.63-.86-1.08-1.12-.45-.26-.95-.4-1.49-.4-.55 0-1.04.13-1.49.39-.45.25-.81.63-1.07 1.12-.27.49-.4 1.06-.4 1.72 0 .68.13 1.26.4 1.76.26.49.62.87 1.07 1.14.45.26.94.38 1.49.38.54 0 1.04-.12 1.49-.38.45-.27.82-.65 1.08-1.14.27-.5.4-1.08.4-1.74Zm5.39-7.44V1130h-1.45v-11.84h1.45Zm1.94 7.42c0-.89.18-1.68.54-2.35.37-.68.86-1.21 1.49-1.58.64-.38 1.35-.56 2.13-.56.77 0 1.43.16 2 .49.56.33.99.75 1.26 1.25v-1.6h1.48v8.77h-1.48v-1.63c-.28.51-.72.94-1.29 1.28-.57.33-1.23.49-1.99.49-.78 0-1.48-.19-2.11-.57-.63-.39-1.12-.92-1.49-1.62-.36-.69-.54-1.48-.54-2.37Zm7.42.02c0-.66-.13-1.24-.4-1.73-.26-.49-.63-.86-1.08-1.12-.45-.26-.95-.4-1.49-.4-.55 0-1.04.13-1.49.39-.45.25-.81.63-1.07 1.12-.27.49-.4 1.06-.4 1.72 0 .68.13 1.26.4 1.76.26.49.62.87 1.07 1.14.45.26.94.38 1.49.38.54 0 1.04-.12 1.49-.38.45-.27.82-.65 1.08-1.14.27-.5.4-1.08.4-1.74Z" fill="#A8A8B3"/><rect x="1138.5" y="1099.5" width="319" height="49" rx="7.5" stroke="#A8A8B3"/><path d="M1224.42 1061.13c-.71 0-1.37-.17-1.96-.49a3.66 3.66 0 0 1-1.37-1.39c-.32-.61-.49-1.31-.49-2.1 0-.78.17-1.47.51-2.07.34-.61.81-1.07 1.4-1.39.58-.32 1.24-.49 1.97-.49s1.39.17 1.97.49c.59.32 1.05.78 1.39 1.37.35.6.52 1.3.52 2.09 0 .79-.18 1.49-.53 2.1-.35.6-.82 1.06-1.42 1.39-.6.32-1.26.49-1.99.49Zm0-1.12c.46 0 .89-.11 1.29-.33.4-.21.73-.53.97-.96.25-.43.38-.95.38-1.57 0-.62-.13-1.14-.37-1.57-.24-.43-.56-.74-.95-.95a2.66 2.66 0 0 0-1.27-.32c-.47 0-.9.11-1.29.32-.38.21-.69.52-.93.95-.23.43-.35.95-.35 1.57 0 .63.12 1.15.34 1.58.23.43.54.75.92.97.39.2.81.31 1.26.31Zm12.42-6.68v7.67h-1.28v-1.13c-.24.39-.58.7-1.02.92-.43.21-.9.32-1.43.32-.59 0-1.13-.12-1.61-.36a2.83 2.83 0 0 1-1.13-1.12c-.27-.5-.41-1.1-.41-1.81v-4.49h1.26v4.32c0 .76.19 1.34.58 1.75.38.41.9.61 1.57.61.68 0 1.21-.21 1.61-.63.39-.42.58-1.04.58-1.84v-4.21h1.28Zm12.88 3.54c0 .24-.01.5-.04.77h-6.13c.04.76.3 1.35.77 1.78.47.42 1.05.63 1.72.63.55 0 1.01-.13 1.37-.38.37-.26.64-.61.78-1.04h1.38c-.21.74-.62 1.34-1.24 1.81-.61.46-1.38.69-2.29.69-.73 0-1.38-.17-1.96-.49-.57-.33-1.02-.79-1.35-1.39-.32-.61-.49-1.31-.49-2.1s.16-1.49.48-2.09c.32-.59.76-1.05 1.33-1.37.58-.32 1.24-.49 1.99-.49.73 0 1.37.16 1.93.48.56.32.99.75 1.29 1.31.31.55.46 1.18.46 1.88Zm-1.32-.27c0-.48-.1-.9-.32-1.24-.21-.36-.51-.62-.88-.8a2.58 2.58 0 0 0-1.22-.28 2.4 2.4 0 0 0-1.65.62c-.45.41-.7.98-.77 1.7h4.84Zm6.74-3.41c.93 0 1.69.28 2.27.85.58.56.87 1.37.87 2.44v4.52h-1.26v-4.34c0-.77-.2-1.35-.58-1.75-.38-.41-.9-.62-1.57-.62s-1.2.21-1.61.63c-.39.42-.58 1.04-.58 1.84v4.24h-1.28v-7.67h1.28v1.09c.25-.39.59-.7 1.02-.91.44-.21.92-.32 1.44-.32Zm6.77 1.19v4.52c0 .37.08.64.24.8.16.15.43.22.83.22h.93v1.08h-1.14c-.71 0-1.25-.16-1.6-.49-.36-.33-.53-.86-.53-1.61v-4.52h-1v-1.05h1v-1.93h1.27v1.93h2v1.05h-2Zm4.82.19c.22-.43.54-.78.95-1.02.42-.24.93-.36 1.53-.36v1.31h-.34c-1.43 0-2.14.78-2.14 2.33v4.17h-1.27v-7.67h1.27v1.24Zm10.95 2.3c0 .24-.01.5-.04.77h-6.13c.04.76.3 1.35.77 1.78.47.42 1.05.63 1.72.63.55 0 1.01-.13 1.37-.38.37-.26.63-.61.78-1.04h1.38c-.21.74-.62 1.34-1.24 1.81-.61.46-1.38.69-2.29.69-.73 0-1.38-.17-1.96-.49-.57-.33-1.02-.79-1.35-1.39-.32-.61-.49-1.31-.49-2.1s.16-1.49.48-2.09c.32-.59.76-1.05 1.33-1.37.58-.32 1.24-.49 1.99-.49.73 0 1.37.16 1.93.48.56.32.99.75 1.29 1.31.31.55.46 1.18.46 1.88Zm-1.32-.27c0-.48-.1-.9-.32-1.24-.21-.36-.51-.62-.88-.8a2.58 2.58 0 0 0-1.22-.28 2.4 2.4 0 0 0-1.65.62c-.45.41-.71.98-.77 1.7h4.84Zm13.73.27c0 .24-.01.5-.04.77h-6.13c.05.76.3 1.35.77 1.78.48.42 1.05.63 1.72.63.55 0 1.01-.13 1.37-.38.38-.26.64-.61.79-1.04h1.37c-.21.74-.62 1.34-1.23 1.81-.62.46-1.38.69-2.3.69-.73 0-1.38-.17-1.96-.49-.57-.33-1.02-.79-1.34-1.39-.33-.61-.49-1.31-.49-2.1s.16-1.49.47-2.09c.32-.59.76-1.05 1.33-1.37.58-.32 1.24-.49 1.99-.49.73 0 1.37.16 1.93.48.56.32.99.75 1.29 1.31.31.55.46 1.18.46 1.88Zm-1.31-.27c0-.48-.11-.9-.32-1.24-.22-.36-.51-.62-.89-.8-.36-.19-.77-.28-1.21-.28-.65 0-1.2.21-1.66.62-.44.41-.7.98-.77 1.7h4.85Zm12.22-3.41c.6 0 1.13.12 1.6.38.46.24.83.61 1.1 1.1.27.5.41 1.1.41 1.81v4.52h-1.26v-4.34c0-.77-.19-1.35-.57-1.75-.38-.41-.89-.62-1.53-.62-.66 0-1.19.22-1.58.65-.39.42-.59 1.03-.59 1.83v4.23h-1.26v-4.34c0-.77-.19-1.35-.57-1.75-.38-.41-.89-.62-1.53-.62-.66 0-1.19.22-1.58.65-.39.42-.59 1.03-.59 1.83v4.23h-1.27v-7.67h1.27v1.1c.25-.4.59-.71 1.01-.92.43-.21.9-.32 1.41-.32.65 0 1.21.14 1.71.43.49.29.86.72 1.11 1.28.21-.55.56-.97 1.06-1.26.49-.3 1.04-.45 1.65-.45Zm15.74.14v7.67h-1.28v-1.13c-.24.39-.58.7-1.02.92-.43.21-.91.32-1.43.32-.6 0-1.13-.12-1.61-.36a2.83 2.83 0 0 1-1.13-1.12c-.27-.5-.41-1.1-.41-1.81v-4.49h1.26v4.32c0 .76.19 1.34.58 1.75.38.41.9.61 1.56.61.68 0 1.22-.21 1.61-.63.4-.42.59-1.04.59-1.84v-4.21h1.28Zm11.37-.14c.6 0 1.13.12 1.6.38.47.24.83.61 1.1 1.1.28.5.41 1.1.41 1.81v4.52h-1.26v-4.34c0-.77-.19-1.35-.57-1.75-.38-.41-.89-.62-1.53-.62-.66 0-1.19.22-1.58.65-.39.42-.59 1.03-.59 1.83v4.23h-1.26v-4.34c0-.77-.19-1.35-.57-1.75-.38-.41-.89-.62-1.53-.62-.66 0-1.19.22-1.58.65-.39.42-.59 1.03-.59 1.83v4.23h-1.27v-7.67h1.27v1.1c.25-.4.59-.71 1.01-.92.43-.21.9-.32 1.41-.32.65 0 1.22.14 1.71.43.5.29.86.72 1.11 1.28.21-.55.57-.97 1.06-1.26.5-.3 1.05-.45 1.65-.45Zm4.72 3.95c0-.79.16-1.47.48-2.06.32-.6.75-1.06 1.3-1.39a3.69 3.69 0 0 1 1.86-.49c.68 0 1.26.15 1.75.44.5.29.87.65 1.11 1.09v-1.4h1.29v7.67h-1.29v-1.43c-.25.45-.63.82-1.13 1.12-.5.29-1.08.44-1.74.44-.68 0-1.3-.17-1.85-.51-.55-.33-.98-.81-1.3-1.41-.32-.61-.48-1.3-.48-2.07Zm6.5.01c0-.58-.12-1.08-.35-1.51-.23-.43-.55-.76-.95-.98a2.44 2.44 0 0 0-1.3-.35c-.48 0-.91.11-1.31.33-.39.23-.7.55-.93.98-.24.43-.35.94-.35 1.52 0 .58.11 1.1.35 1.54.23.43.54.76.93.99.4.22.83.34 1.31.34.47 0 .91-.12 1.3-.34.4-.23.72-.56.95-.99.23-.44.35-.95.35-1.53Zm9.89 3.98c-.59 0-1.12-.1-1.58-.3-.47-.2-.84-.48-1.11-.84-.27-.36-.42-.78-.45-1.24h1.32c.04.38.21.69.53.93.33.25.75.37 1.28.37.48 0 .86-.11 1.14-.32.28-.22.42-.49.42-.82 0-.33-.15-.58-.44-.74-.3-.17-.76-.33-1.39-.49-.57-.15-1.04-.3-1.4-.45-.35-.15-.66-.38-.92-.68-.26-.31-.38-.71-.38-1.21 0-.39.11-.75.35-1.07.23-.33.56-.59.99-.77.43-.2.92-.3 1.47-.3.85 0 1.54.22 2.06.65.52.43.8 1.01.84 1.76h-1.27c-.03-.4-.2-.72-.49-.97-.29-.24-.69-.36-1.18-.36-.46 0-.82.1-1.09.29-.27.2-.41.46-.41.77 0 .26.08.47.24.63.17.16.37.29.62.4.25.09.59.2 1.03.32.55.15 1 .3 1.35.45.34.14.64.35.88.64.25.29.38.67.39 1.13 0 .42-.12.8-.35 1.14-.23.33-.56.6-.99.8-.42.18-.91.28-1.46.28Zm4.12-3.99c0-.79.16-1.47.48-2.06.32-.6.75-1.06 1.3-1.39a3.69 3.69 0 0 1 1.86-.49c.67 0 1.26.15 1.75.44.5.29.87.65 1.11 1.09v-1.4h1.29v7.67h-1.29v-1.43c-.25.45-.63.82-1.14 1.12-.49.29-1.07.44-1.73.44-.68 0-1.3-.17-1.85-.51-.55-.33-.98-.81-1.3-1.41-.32-.61-.48-1.3-.48-2.07Zm6.5.01c0-.58-.12-1.08-.35-1.51-.24-.43-.55-.76-.95-.98-.4-.24-.83-.35-1.31-.35-.47 0-.91.11-1.3.33-.39.23-.7.55-.94.98-.23.43-.35.94-.35 1.52 0 .58.12 1.1.35 1.54.24.43.55.76.94.99.39.22.83.34 1.3.34.48 0 .91-.12 1.31-.34.4-.23.71-.56.95-.99.23-.44.35-.95.35-1.53Zm4.71-6.51V1061h-1.27v-10.36h1.27Zm1.7 6.5c0-.79.16-1.47.47-2.06.32-.6.76-1.06 1.31-1.39a3.69 3.69 0 0 1 1.86-.49c.67 0 1.25.15 1.75.44.49.29.86.65 1.1 1.09v-1.4h1.29v7.67h-1.29v-1.43c-.25.45-.63.82-1.13 1.12-.49.29-1.07.44-1.74.44-.68 0-1.29-.17-1.84-.51a3.57 3.57 0 0 1-1.31-1.41c-.31-.61-.47-1.3-.47-2.07Zm6.49.01c0-.58-.11-1.08-.35-1.51-.23-.43-.55-.76-.95-.98-.39-.24-.82-.35-1.3-.35-.48 0-.91.11-1.3.33-.39.23-.71.55-.94.98-.23.43-.35.94-.35 1.52 0 .58.12 1.1.35 1.54.23.43.55.76.94.99.39.22.82.34 1.3.34.48 0 .91-.12 1.3-.34.4-.23.72-.56.95-.99.24-.44.35-.95.35-1.53Z" fill="#A8A8B3"/><path stroke="#A8A8B3" d="M1139 1056.5h75M1383 1056.5h75"/><path d="M1182 982c1.62 0 3.1.554 4.29 1.474l3.63-3.47A11.924 11.924 0 0 0 1182 977c-4.61 0-8.6 2.6-10.61 6.41l4.04 3.193c.98-2.684 3.55-4.603 6.57-4.603Z" fill="#F44336"/><path d="M1193.9 990.502c.06-.492.1-.993.1-1.502 0-.858-.09-1.693-.26-2.5H1182v5h6.49a7.097 7.097 0 0 1-2.65 3.319l4.06 3.205a12.026 12.026 0 0 0 4-7.522Z" fill="#2196F3"/><path d="M1175 989c0-.843.16-1.648.43-2.397l-4.04-3.193A11.84 11.84 0 0 0 1170 989c0 1.997.5 3.876 1.36 5.533l4.05-3.197A6.96 6.96 0 0 1 1175 989Z" fill="#FFC107"/><path d="M1182 996a6.986 6.986 0 0 1-6.59-4.664l-4.05 3.197c2 3.84 6.01 6.467 10.64 6.467 3.03 0 5.79-1.125 7.9-2.976l-4.06-3.205A6.838 6.838 0 0 1 1182 996Z" fill="#00B060"/><path opacity=".1" d="M1182 1000.75c-3.53 0-6.71-1.457-8.95-3.779 2.2 2.467 5.39 4.029 8.95 4.029 3.53 0 6.7-1.531 8.89-3.959a12.409 12.409 0 0 1-8.89 3.709ZM1182 991.25v.25h6.49l.1-.25H1182Z" fill="#000"/><path d="M1193.99 989.147c.01-.049.01-.098.01-.147v-.041c0 .063-.01.125-.01.188Z" fill="#E6E6E6"/><path opacity=".2" d="M1182 986.5v.25h11.79a2.256 2.256 0 0 1-.05-.25H1182Z" fill="#FEFEFE"/><path d="M1193.74 986.5H1182v5h6.49c-1.01 2.622-3.51 4.5-6.49 4.5-3.87 0-7-3.134-7-7s3.13-7 7-7c1.4 0 2.69.431 3.79 1.141.17.109.34.211.5.333l3.63-3.47-.08-.063A11.924 11.924 0 0 0 1182 977c-6.63 0-12 5.373-12 12s5.37 12 12 12c6.12 0 11.16-4.581 11.9-10.498.06-.492.1-.993.1-1.502 0-.858-.09-1.693-.26-2.5Z" fill="url(#q)"/><path opacity=".1" d="M1185.79 982.891c-1.1-.71-2.39-1.141-3.79-1.141-3.87 0-7 3.134-7 7v.117a7 7 0 0 1 7-6.867c1.4 0 2.69.431 3.79 1.141.17.109.34.211.5.333l3.63-3.47-3.63 3.22c-.16-.122-.33-.224-.5-.333Z" fill="#000"/><path opacity=".2" d="M1182 977.25c2.98 0 5.68 1.098 7.78 2.892l.14-.138-.11-.096A11.817 11.817 0 0 0 1182 977c-6.63 0-12 5.373-12 12 0 .042.01.083.01.125.06-6.569 5.4-11.875 11.99-11.875Z" fill="#FEFEFE"/><path d="M1204.59 989.416c0-1.088.25-2.064.75-2.928a5.457 5.457 0 0 1 2.07-2.016 5.737 5.737 0 0 1 2.86-.736c1.19 0 2.24.293 3.15.88.93.576 1.6 1.397 2.02 2.464h-2.19c-.29-.587-.69-1.024-1.2-1.312-.51-.288-1.11-.432-1.78-.432-.73 0-1.39.165-1.97.496-.57.331-1.03.805-1.36 1.424-.32.619-.48 1.339-.48 2.16 0 .821.16 1.541.48 2.16.33.619.79 1.099 1.36 1.44.58.331 1.24.496 1.97.496.67 0 1.27-.144 1.78-.432.51-.288.91-.725 1.2-1.312h2.19c-.42 1.067-1.09 1.888-2.02 2.464-.91.576-1.96.864-3.15.864-1.04 0-2-.24-2.86-.72a5.58 5.58 0 0 1-2.07-2.032c-.5-.864-.75-1.84-.75-2.928Zm14.81-1.952c.27-.448.62-.795 1.06-1.04.44-.256.97-.384 1.58-.384v1.888h-.46c-.72 0-1.26.181-1.64.544-.36.363-.54.992-.54 1.888V995h-1.82v-8.816h1.82v1.28Zm5.24-2.448a1.136 1.136 0 0 1-1.16-1.168 1.14 1.14 0 0 1 1.16-1.168c.32 0 .6.112.82.336.22.224.34.501.34.832 0 .331-.12.608-.34.832-.22.224-.5.336-.82.336Zm.9 1.168V995h-1.82v-8.816h1.82Zm10.47 4.192c0 .331-.02.629-.06.896h-6.74c.06.704.32 1.269.79 1.696.47.427 1.04.64 1.73.64.98 0 1.67-.411 2.08-1.232h1.96c-.26.811-.75 1.477-1.45 2-.69.512-1.56.768-2.59.768-.85 0-1.6-.187-2.28-.56a4.144 4.144 0 0 1-1.56-1.6c-.38-.693-.56-1.493-.56-2.4 0-.907.18-1.701.54-2.384.37-.693.89-1.227 1.55-1.6.67-.373 1.44-.56 2.31-.56.83 0 1.57.181 2.22.544.65.363 1.16.875 1.52 1.536.36.651.54 1.403.54 2.256Zm-1.9-.576c-.01-.672-.25-1.211-.72-1.616s-1.05-.608-1.74-.608c-.63 0-1.17.203-1.62.608-.45.395-.71.933-.8 1.616h4.88Zm11.06 5.344c-.7 0-1.32-.123-1.88-.368-.54-.256-.97-.597-1.29-1.024a2.579 2.579 0 0 1-.51-1.456h1.88c.04.373.21.688.53.944.33.245.74.368 1.23.368.52 0 .91-.096 1.19-.288.29-.203.43-.459.43-.768 0-.331-.16-.576-.48-.736-.31-.16-.81-.336-1.49-.528-.66-.181-1.2-.357-1.61-.528a2.885 2.885 0 0 1-1.09-.784c-.3-.352-.45-.816-.45-1.392 0-.469.14-.896.42-1.28.27-.395.67-.704 1.18-.928.52-.224 1.12-.336 1.79-.336 1 0 1.81.256 2.42.768.62.501.95 1.189.99 2.064h-1.82c-.04-.395-.2-.709-.48-.944-.29-.235-.68-.352-1.17-.352-.48 0-.85.091-1.11.272a.852.852 0 0 0-.38.72c0 .235.08.432.26.592.17.16.37.288.62.384.24.085.61.197 1.09.336.64.171 1.16.347 1.57.528.41.171.77.427 1.07.768.3.341.45.795.46 1.36 0 .501-.14.949-.41 1.344-.28.395-.68.704-1.19.928-.5.224-1.09.336-1.77.336Zm13.33-8.96V995h-1.83v-1.04c-.29.363-.66.651-1.13.864-.46.203-.95.304-1.48.304-.69 0-1.31-.144-1.87-.432a3.196 3.196 0 0 1-1.29-1.28c-.31-.565-.47-1.248-.47-2.048v-5.184h1.81v4.912c0 .789.2 1.397.59 1.824.4.416.94.624 1.62.624.68 0 1.22-.208 1.61-.624.41-.427.61-1.035.61-1.824v-4.912h1.83Zm1.8 4.368c0-.885.18-1.669.54-2.352a4.051 4.051 0 0 1 3.62-2.16c.69 0 1.29.139 1.8.416.53.267.94.603 1.25 1.008v-1.28h1.84V995h-1.84v-1.312c-.31.416-.73.763-1.26 1.04-.54.277-1.14.416-1.83.416-.75 0-1.45-.192-2.08-.576a4.24 4.24 0 0 1-1.5-1.632c-.36-.704-.54-1.499-.54-2.384Zm7.21.032c0-.608-.13-1.136-.38-1.584-.25-.448-.57-.789-.98-1.024-.4-.235-.84-.352-1.31-.352-.47 0-.91.117-1.31.352-.41.224-.74.56-.99 1.008-.25.437-.37.96-.37 1.568 0 .608.12 1.141.37 1.6.25.459.58.811.99 1.056.41.235.85.352 1.31.352.47 0 .91-.117 1.31-.352.41-.235.73-.576.98-1.024.25-.459.38-.992.38-1.6Zm11.59 4.56c-.69 0-1.31-.123-1.87-.368-.54-.256-.97-.597-1.29-1.024a2.59 2.59 0 0 1-.52-1.456h1.89c.03.373.21.688.53.944.33.245.74.368 1.23.368.51 0 .91-.096 1.19-.288.28-.203.43-.459.43-.768 0-.331-.16-.576-.48-.736-.31-.16-.81-.336-1.49-.528-.66-.181-1.2-.357-1.62-.528a2.852 2.852 0 0 1-1.08-.784c-.3-.352-.45-.816-.45-1.392 0-.469.14-.896.41-1.28.28-.395.68-.704 1.19-.928.52-.224 1.12-.336 1.79-.336 1 0 1.81.256 2.42.768.61.501.94 1.189.99 2.064h-1.83a1.285 1.285 0 0 0-.48-.944c-.28-.235-.67-.352-1.16-.352-.48 0-.85.091-1.11.272a.852.852 0 0 0-.38.72c0 .235.08.432.25.592.17.16.38.288.63.384.24.085.61.197 1.09.336.64.171 1.16.347 1.56.528.42.171.78.427 1.08.768.29.341.45.795.46 1.36 0 .501-.14.949-.42 1.344-.27.395-.67.704-1.18.928-.5.224-1.09.336-1.78.336Zm4.74-4.592c0-.885.18-1.669.55-2.352.37-.683.87-1.211 1.5-1.584a4.016 4.016 0 0 1 2.11-.576c.7 0 1.3.139 1.81.416.52.267.94.603 1.25 1.008v-1.28h1.84V995h-1.84v-1.312c-.31.416-.73.763-1.27 1.04-.53.277-1.14.416-1.82.416-.76 0-1.45-.192-2.08-.576a4.24 4.24 0 0 1-1.5-1.632c-.37-.704-.55-1.499-.55-2.384Zm7.22.032c0-.608-.13-1.136-.39-1.584a2.573 2.573 0 0 0-.97-1.024 2.574 2.574 0 0 0-1.31-.352c-.47 0-.91.117-1.32.352-.4.224-.73.56-.99 1.008-.24.437-.37.96-.37 1.568 0 .608.13 1.141.37 1.6.26.459.59.811.99 1.056.42.235.86.352 1.32.352.47 0 .9-.117 1.31-.352.4-.235.73-.576.97-1.024.26-.459.39-.992.39-1.6Zm6.06-7.424V995h-1.83v-11.84h1.83Zm1.78 7.392c0-.885.19-1.669.55-2.352a4.042 4.042 0 0 1 3.61-2.16c.7 0 1.3.139 1.81.416.53.267.94.603 1.25 1.008v-1.28h1.84V995h-1.84v-1.312c-.31.416-.73.763-1.26 1.04-.54.277-1.14.416-1.83.416-.75 0-1.45-.192-2.08-.576a4.24 4.24 0 0 1-1.5-1.632c-.36-.704-.55-1.499-.55-2.384Zm7.22.032c0-.608-.13-1.136-.38-1.584-.25-.448-.57-.789-.98-1.024-.4-.235-.84-.352-1.31-.352-.47 0-.91.117-1.31.352-.41.224-.74.56-1 1.008-.24.437-.36.96-.36 1.568 0 .608.12 1.141.36 1.6.26.459.59.811 1 1.056.41.235.85.352 1.31.352.47 0 .91-.117 1.31-.352.41-.235.73-.576.98-1.024.25-.459.38-.992.38-1.6Zm7.78 0c0-.907.19-1.701.55-2.384.37-.693.88-1.227 1.53-1.6.66-.373 1.4-.56 2.24-.56 1.07 0 1.95.256 2.64.768.71.501 1.18 1.221 1.43 2.16h-1.97a2.096 2.096 0 0 0-.77-1.024c-.35-.245-.79-.368-1.33-.368-.74 0-1.34.267-1.79.8-.43.523-.65 1.259-.65 2.208 0 .949.22 1.691.65 2.224.45.533 1.05.8 1.79.8 1.06 0 1.76-.464 2.1-1.392h1.97c-.26.896-.74 1.611-1.44 2.144-.71.523-1.58.784-2.63.784-.84 0-1.58-.187-2.24-.56a4.07 4.07 0 0 1-1.53-1.6c-.36-.693-.55-1.493-.55-2.4Zm14.03 4.56c-.83 0-1.58-.187-2.26-.56a4.125 4.125 0 0 1-1.58-1.6c-.38-.693-.58-1.493-.58-2.4 0-.896.2-1.691.6-2.384.39-.693.93-1.227 1.61-1.6s1.45-.56 2.29-.56c.84 0 1.61.187 2.29.56.68.373 1.22.907 1.61 1.6.4.693.6 1.488.6 2.384 0 .896-.21 1.691-.61 2.384a4.26 4.26 0 0 1-1.67 1.616c-.69.373-1.46.56-2.3.56Zm0-1.584c.47 0 .91-.112 1.31-.336.42-.224.75-.56 1.01-1.008.26-.448.38-.992.38-1.632 0-.64-.12-1.179-.36-1.616-.25-.448-.57-.784-.98-1.008a2.673 2.673 0 0 0-1.31-.336c-.47 0-.91.112-1.31.336-.4.224-.71.56-.95 1.008-.23.437-.35.976-.35 1.616 0 .949.24 1.685.72 2.208.49.512 1.1.768 1.84.768Zm17.05-7.52c.69 0 1.31.144 1.86.432.55.288.98.715 1.29 1.28.32.565.48 1.248.48 2.048v5.2h-1.8v-4.928c0-.789-.2-1.392-.6-1.808-.39-.427-.93-.64-1.61-.64-.69 0-1.23.213-1.63.64-.4.416-.6 1.019-.6 1.808V995h-1.8v-4.928c0-.789-.2-1.392-.6-1.808-.39-.427-.93-.64-1.61-.64-.69 0-1.23.213-1.63.64-.4.416-.6 1.019-.6 1.808V995h-1.82v-8.816h1.82v1.008c.3-.363.68-.645 1.14-.848a3.6 3.6 0 0 1 1.47-.304c.71 0 1.33.149 1.89.448a3.1 3.1 0 0 1 1.28 1.296c.27-.533.68-.955 1.25-1.264.56-.32 1.17-.48 1.82-.48Zm13.93 9.104c-.83 0-1.58-.187-2.25-.56a4.22 4.22 0 0 1-1.59-1.6c-.38-.693-.57-1.493-.57-2.4 0-.896.2-1.691.59-2.384.4-.693.93-1.227 1.62-1.6.68-.373 1.44-.56 2.28-.56.85 0 1.61.187 2.29.56.69.373 1.22.907 1.62 1.6.39.693.59 1.488.59 2.384 0 .896-.2 1.691-.61 2.384-.4.693-.96 1.232-1.66 1.616-.69.373-1.46.56-2.31.56Zm0-1.584c.47 0 .91-.112 1.32-.336.41-.224.75-.56 1-1.008.26-.448.39-.992.39-1.632 0-.64-.12-1.179-.37-1.616a2.42 2.42 0 0 0-.98-1.008c-.4-.224-.84-.336-1.31-.336-.47 0-.9.112-1.31.336-.39.224-.71.56-.94 1.008-.24.437-.36.976-.36 1.616 0 .949.24 1.685.72 2.208.5.512 1.11.768 1.84.768Zm18.59-6.48c-.29-.555-.69-.971-1.2-1.248-.51-.288-1.11-.432-1.78-.432-.73 0-1.39.165-1.97.496-.57.331-1.03.8-1.36 1.408-.32.608-.48 1.312-.48 2.112s.16 1.509.48 2.128c.33.608.79 1.077 1.36 1.408.58.331 1.24.496 1.97.496.99 0 1.8-.277 2.42-.832.62-.555 1-1.307 1.13-2.256h-4.17v-1.456h6.13v1.424a5.472 5.472 0 0 1-.93 2.384 5.461 5.461 0 0 1-1.94 1.744c-.79.427-1.67.64-2.64.64-1.04 0-2-.24-2.86-.72a5.58 5.58 0 0 1-2.07-2.032c-.5-.864-.75-1.84-.75-2.928 0-1.088.25-2.064.75-2.928a5.457 5.457 0 0 1 2.07-2.016 5.737 5.737 0 0 1 2.86-.736c1.19 0 2.24.293 3.15.88.93.576 1.6 1.397 2.02 2.464h-2.19Zm8.15 8.064c-.83 0-1.58-.187-2.26-.56a4.125 4.125 0 0 1-1.58-1.6c-.38-.693-.58-1.493-.58-2.4 0-.896.2-1.691.6-2.384.39-.693.93-1.227 1.61-1.6s1.45-.56 2.29-.56c.84 0 1.6.187 2.29.56.68.373 1.22.907 1.61 1.6.4.693.6 1.488.6 2.384 0 .896-.21 1.691-.61 2.384a4.26 4.26 0 0 1-1.67 1.616c-.69.373-1.46.56-2.3.56Zm0-1.584c.47 0 .91-.112 1.31-.336.42-.224.75-.56 1.01-1.008.26-.448.38-.992.38-1.632 0-.64-.12-1.179-.36-1.616a2.546 2.546 0 0 0-.98-1.008 2.673 2.673 0 0 0-1.31-.336c-.47 0-.91.112-1.31.336-.4.224-.71.56-.95 1.008-.23.437-.35.976-.35 1.616 0 .949.24 1.685.72 2.208.49.512 1.1.768 1.84.768Zm10.2 1.584c-.83 0-1.58-.187-2.25-.56a4.15 4.15 0 0 1-1.59-1.6c-.38-.693-.57-1.493-.57-2.4 0-.896.19-1.691.59-2.384.39-.693.93-1.227 1.61-1.6.69-.373 1.45-.56 2.29-.56.84 0 1.61.187 2.29.56a4.15 4.15 0 0 1 1.62 1.6c.39.693.59 1.488.59 2.384 0 .896-.2 1.691-.61 2.384a4.302 4.302 0 0 1-1.66 1.616c-.7.373-1.47.56-2.31.56Zm0-1.584c.47 0 .91-.112 1.31-.336.42-.224.76-.56 1.01-1.008.26-.448.39-.992.39-1.632 0-.64-.13-1.179-.37-1.616-.25-.448-.57-.784-.98-1.008-.4-.224-.84-.336-1.31-.336-.47 0-.91.112-1.31.336-.4.224-.71.56-.95 1.008-.23.437-.35.976-.35 1.616 0 .949.24 1.685.72 2.208.49.512 1.11.768 1.84.768Zm9.93-7.52c.69 0 1.29.139 1.81.416.53.267.95.603 1.25 1.008v-1.28h1.84v8.96c0 .811-.17 1.531-.51 2.16-.34.64-.84 1.141-1.49 1.504-.64.363-1.41.544-2.3.544-1.2 0-2.19-.283-2.98-.848-.79-.555-1.24-1.312-1.34-2.272h1.8c.14.459.44.827.88 1.104.46.288 1.01.432 1.64.432.73 0 1.32-.224 1.77-.672.46-.448.69-1.099.69-1.952v-1.472c-.31.416-.73.768-1.26 1.056-.53.277-1.12.416-1.8.416-.76 0-1.47-.192-2.11-.576a4.24 4.24 0 0 1-1.5-1.632c-.37-.704-.55-1.499-.55-2.384 0-.885.18-1.669.55-2.352a4.042 4.042 0 0 1 3.61-2.16Zm3.06 4.544c0-.608-.13-1.136-.38-1.584a2.666 2.666 0 0 0-.98-1.024 2.574 2.574 0 0 0-1.31-.352c-.47 0-.91.117-1.31.352-.41.224-.74.56-1 1.008-.24.437-.36.96-.36 1.568 0 .608.12 1.141.36 1.6.26.459.59.811 1 1.056.41.235.85.352 1.31.352.47 0 .9-.117 1.31-.352.4-.235.73-.576.98-1.024.25-.459.38-.992.38-1.6Zm6.06-7.424V995h-1.82v-11.84h1.82Zm10.47 7.216c0 .331-.02.629-.06.896h-6.74c.06.704.32 1.269.79 1.696.47.427 1.04.64 1.73.64.98 0 1.67-.411 2.08-1.232h1.96c-.26.811-.75 1.477-1.45 2-.7.512-1.56.768-2.59.768-.85 0-1.6-.187-2.28-.56a4.144 4.144 0 0 1-1.56-1.6c-.38-.693-.56-1.493-.56-2.4 0-.907.18-1.701.54-2.384.37-.693.89-1.227 1.55-1.6.67-.373 1.44-.56 2.31-.56.83 0 1.57.181 2.22.544.65.363 1.16.875 1.52 1.536.36.651.54 1.403.54 2.256Zm-1.9-.576c-.01-.672-.25-1.211-.72-1.616s-1.05-.608-1.74-.608c-.63 0-1.17.203-1.62.608-.45.395-.71.933-.8 1.616h4.88Z" fill="#29292E"/><rect x="1138.5" y="964.5" width="319" height="49" rx="7.5" stroke="#A8A8B3"/><path d="M1221 858.999h4.47v21.275H1221v-21.275ZM1243.59 872.618c0 .057-.03.459-.09 1.204h-11.67c.21.956.71 1.711 1.49 2.265.79.555 1.76.832 2.93.832.8 0 1.51-.115 2.12-.344a5.4 5.4 0 0 0 1.75-1.147l2.38 2.58c-1.46 1.663-3.58 2.495-6.37 2.495-1.74 0-3.28-.335-4.61-1.004-1.34-.688-2.37-1.634-3.1-2.838-.73-1.204-1.09-2.571-1.09-4.1 0-1.51.35-2.867 1.06-4.072a7.56 7.56 0 0 1 2.95-2.838c1.27-.688 2.67-1.032 4.22-1.032 1.51 0 2.88.325 4.1.975a7.03 7.03 0 0 1 2.87 2.809c.7 1.205 1.06 2.609 1.06 4.215Zm-8-4.616c-1.02 0-1.87.287-2.55.86-.69.574-1.11 1.357-1.27 2.351h7.6c-.15-.975-.57-1.749-1.26-2.322-.69-.593-1.53-.889-2.52-.889ZM1255.37 879.528c-.44.325-.99.573-1.64.746-.63.152-1.3.229-2 .229-1.84 0-3.26-.468-4.28-1.405-.99-.937-1.49-2.313-1.49-4.129v-6.336h-2.38v-3.441h2.38v-3.756h4.48v3.756h3.84v3.441h-3.84v6.279c0 .65.16 1.156.48 1.519.35.345.83.517 1.44.517.7 0 1.31-.192 1.8-.574l1.21 3.154ZM1276.49 864.619c1.93 0 3.46.573 4.58 1.72 1.15 1.128 1.72 2.829 1.72 5.104v8.831h-4.47v-8.143c0-1.224-.26-2.132-.77-2.724-.5-.612-1.22-.918-2.15-.918-1.05 0-1.89.344-2.5 1.033-.61.669-.92 1.672-.92 3.01v7.742h-4.47v-8.143c0-2.428-.97-3.642-2.92-3.642-1.03 0-1.86.344-2.47 1.033-.61.669-.92 1.672-.92 3.01v7.742h-4.47v-15.426h4.27v1.778a5.682 5.682 0 0 1 2.1-1.491c.84-.344 1.75-.516 2.75-.516 1.09 0 2.07.219 2.95.659a5.09 5.09 0 0 1 2.12 1.864 6.396 6.396 0 0 1 2.38-1.864c.98-.44 2.04-.659 3.19-.659ZM1300.93 872.618c0 .057-.02.459-.08 1.204h-11.67c.21.956.71 1.711 1.49 2.265.78.555 1.76.832 2.92.832.81 0 1.51-.115 2.13-.344a5.4 5.4 0 0 0 1.75-1.147l2.37 2.58c-1.45 1.663-3.57 2.495-6.36 2.495-1.74 0-3.28-.335-4.62-1.004-1.33-.688-2.37-1.634-3.09-2.838-.73-1.204-1.09-2.571-1.09-4.1 0-1.51.35-2.867 1.06-4.072a7.494 7.494 0 0 1 2.95-2.838c1.26-.688 2.67-1.032 4.22-1.032 1.51 0 2.87.325 4.1.975a6.946 6.946 0 0 1 2.86 2.809c.71 1.205 1.06 2.609 1.06 4.215Zm-8-4.616c-1.01 0-1.86.287-2.55.86-.69.574-1.11 1.357-1.26 2.351h7.6c-.15-.975-.57-1.749-1.26-2.322-.69-.593-1.53-.889-2.53-.889Z" fill="#29292E"/><path d="m1327.09 864.848-3.07 15.426h-4.25l.29-1.52c-1.28 1.166-2.86 1.749-4.73 1.749-1.2 0-2.31-.277-3.33-.832-1.01-.554-1.82-1.347-2.43-2.379-.6-1.052-.89-2.285-.89-3.699 0-1.701.37-3.23 1.12-4.588.76-1.376 1.79-2.446 3.09-3.211 1.3-.783 2.74-1.175 4.3-1.175 2.37 0 4.05.774 5.02 2.322l.4-2.093h4.48Zm-10.38 11.956c.88 0 1.66-.21 2.35-.631a4.413 4.413 0 0 0 1.6-1.806c.39-.764.58-1.644.58-2.638 0-1.051-.32-1.882-.95-2.494-.61-.612-1.47-.918-2.58-.918-.88 0-1.66.22-2.35.66-.69.42-1.22 1.013-1.61 1.777-.38.765-.57 1.644-.57 2.638 0 1.052.31 1.883.92 2.495.63.611 1.5.917 2.61.917Z" fill="url(#r)"/><path d="M1332.63 880.503c-1.34 0-2.61-.143-3.81-.43-1.19-.306-2.11-.698-2.78-1.176l1.72-3.24c.67.44 1.48.794 2.43 1.061.98.268 1.95.402 2.93.402 1.01 0 1.77-.125 2.26-.373.5-.268.75-.64.75-1.118 0-.383-.22-.66-.66-.832-.44-.172-1.15-.353-2.12-.545-1.11-.21-2.03-.439-2.75-.688a4.785 4.785 0 0 1-1.87-1.204c-.51-.573-.77-1.348-.77-2.322 0-1.702.71-3.03 2.12-3.986 1.43-.955 3.31-1.433 5.62-1.433 1.07 0 2.11.114 3.13.344 1.01.229 1.87.544 2.58.946l-1.61 3.268c-1.26-.783-2.78-1.175-4.56-1.175-.97 0-1.72.143-2.24.43-.49.287-.74.65-.74 1.09 0 .401.22.697.66.888.44.172 1.17.364 2.21.574 1.09.21 1.97.439 2.66.688.71.229 1.32.621 1.84 1.175.51.555.77 1.31.77 2.266 0 1.72-.72 3.048-2.18 3.985-1.43.937-3.29 1.405-5.59 1.405Z" fill="url(#s)"/><path d="m1352.59 871.557 5.31 8.717h-5.19l-3.67-5.993-2.72 2.265-.75 3.728h-4.47l4.24-21.275h4.47l-2.38 11.899 7.4-6.05h5.82l-8.06 6.709Z" fill="url(#t)"/><path d="M1302.08 855.902v-7.168a5.737 5.737 0 0 1 5.74-5.734h61.64c3.17 0 5.74 2.567 5.74 5.734v40.141a5.737 5.737 0 0 1-5.74 5.734h-10.03l3.35 15.651c.29 1.368-1.34 2.303-2.37 1.354l-15.32-14.137h-37.27a5.738 5.738 0 0 1-5.74-5.735v-2.867" stroke="url(#u)" stroke-width="4.301"/></g></g><path d="M1465.46 275v-42.656h12.04c3.71 0 6.99.82 9.84 2.461 2.86 1.64 5.05 3.974 6.6 7.002 1.56 3.027 2.35 6.504 2.37 10.429v2.725c0 4.023-.78 7.549-2.35 10.576-1.54 3.027-3.75 5.352-6.65 6.973-2.87 1.621-6.22 2.451-10.04 2.49h-11.81Zm5.62-38.027V270.4h5.92c4.34 0 7.71-1.347 10.11-4.043 2.42-2.695 3.63-6.533 3.63-11.513v-2.49c0-4.844-1.14-8.604-3.43-11.28-2.26-2.695-5.48-4.062-9.66-4.101h-6.57Zm46.06 38.613c-4.3 0-7.79-1.406-10.49-4.219-2.69-2.832-4.04-6.611-4.04-11.338v-.996c0-3.144.59-5.947 1.78-8.408 1.22-2.48 2.9-4.414 5.04-5.801 2.17-1.406 4.52-2.109 7.03-2.109 4.13 0 7.33 1.357 9.61 4.072 2.29 2.715 3.43 6.602 3.43 11.66v2.256h-21.47c.08 3.125.98 5.654 2.72 7.588 1.76 1.914 3.99 2.871 6.68 2.871 1.92 0 3.54-.391 4.86-1.172 1.33-.781 2.5-1.816 3.49-3.105l3.31 2.578c-2.65 4.082-6.64 6.123-11.95 6.123Zm-.68-28.418c-2.18 0-4.02.801-5.5 2.402-1.49 1.582-2.41 3.809-2.76 6.68h15.88v-.41c-.15-2.754-.9-4.883-2.22-6.387-1.33-1.523-3.13-2.285-5.4-2.285Zm37.8 19.424c0-1.465-.56-2.598-1.67-3.399-1.1-.82-3.02-1.523-5.77-2.109-2.74-.586-4.92-1.289-6.54-2.109-1.6-.821-2.79-1.797-3.57-2.93-.76-1.133-1.14-2.481-1.14-4.043 0-2.598 1.09-4.795 3.28-6.592 2.2-1.797 5.02-2.695 8.44-2.695 3.59 0 6.5.928 8.73 2.783 2.24 1.856 3.36 4.229 3.36 7.119h-5.44c0-1.484-.64-2.763-1.91-3.838-1.25-1.074-2.83-1.611-4.74-1.611-1.98 0-3.52.43-4.63 1.289-1.12.859-1.67 1.982-1.67 3.369 0 1.309.51 2.295 1.55 2.959 1.03.664 2.9 1.299 5.59 1.904 2.72.606 4.92 1.329 6.6 2.168 1.68.84 2.92 1.856 3.72 3.047.82 1.172 1.23 2.608 1.23 4.307 0 2.832-1.14 5.107-3.4 6.826-2.27 1.699-5.21 2.549-8.82 2.549-2.54 0-4.78-.449-6.74-1.348-1.95-.898-3.48-2.148-4.6-3.75-1.09-1.621-1.64-3.369-1.64-5.244h5.42c.1 1.817.82 3.262 2.17 4.336 1.37 1.055 3.16 1.582 5.39 1.582 2.05 0 3.69-.41 4.92-1.23 1.25-.84 1.88-1.953 1.88-3.34Zm21.33-6.27-3.4 3.545V275h-5.42v-45h5.42v27.217l2.9-3.487 9.87-10.429h6.59l-12.33 13.242L1592.99 275h-6.36l-11.04-14.678Zm28.91-24.697v7.676h5.92v4.189h-5.92v19.658c0 1.27.27 2.227.79 2.872.53.625 1.43.937 2.7.937.62 0 1.48-.117 2.58-.352V275c-1.43.391-2.82.586-4.16.586-2.43 0-4.25-.732-5.48-2.197-1.23-1.465-1.85-3.545-1.85-6.241V247.49h-5.77v-4.189h5.77v-7.676h5.42Zm10.26 23.232c0-3.105.6-5.898 1.81-8.378 1.23-2.481 2.93-4.395 5.1-5.743 2.19-1.347 4.68-2.021 7.47-2.021 4.32 0 7.8 1.494 10.46 4.482 2.68 2.989 4.01 6.963 4.01 11.924v.381c0 3.086-.59 5.859-1.78 8.32-1.18 2.442-2.87 4.346-5.07 5.713-2.19 1.367-4.71 2.051-7.56 2.051-4.3 0-7.78-1.494-10.46-4.482-2.66-2.989-3.98-6.944-3.98-11.866v-.381Zm5.45.645c0 3.516.81 6.338 2.43 8.467 1.64 2.129 3.82 3.193 6.56 3.193 2.75 0 4.94-1.074 6.56-3.223 1.62-2.168 2.43-5.195 2.43-9.082 0-3.476-.83-6.289-2.49-8.437-1.64-2.168-3.82-3.252-6.56-3.252-2.68 0-4.83 1.064-6.47 3.193-1.64 2.129-2.46 5.176-2.46 9.141Zm56.98 0c0 4.824-1.11 8.711-3.31 11.66-2.21 2.949-5.2 4.424-8.97 4.424-3.85 0-6.87-1.221-9.08-3.662v15.264h-5.42v-43.887h4.95l.26 3.515c2.21-2.734 5.28-4.101 9.2-4.101 3.81 0 6.82 1.435 9.03 4.306 2.22 2.872 3.34 6.866 3.34 11.983v.498Zm-5.42-.615c0-3.575-.76-6.397-2.29-8.467-1.52-2.07-3.61-3.106-6.27-3.106-3.28 0-5.74 1.456-7.38 4.366v15.146c1.62 2.891 4.1 4.336 7.44 4.336 2.6 0 4.66-1.025 6.18-3.076 1.55-2.07 2.32-5.137 2.32-9.199Z" fill="#fff"/></g><defs><linearGradient id="d" x1="293.295" y1="1200.63" x2="410.047" y2="1285.8" gradientUnits="userSpaceOnUse"><stop stop-color="#fff"/><stop offset="1" stop-color="#fff" stop-opacity="0"/></linearGradient><linearGradient id="e" x1="352.794" y1="1118.88" x2="469.545" y2="1204.04" gradientUnits="userSpaceOnUse"><stop stop-color="#fff"/><stop offset="1" stop-color="#fff" stop-opacity="0"/></linearGradient><linearGradient id="f" x1="274.823" y1="1185.63" x2="391.574" y2="1270.8" gradientUnits="userSpaceOnUse"><stop stop-color="#fff"/><stop offset="1" stop-color="#fff" stop-opacity="0"/></linearGradient><linearGradient id="g" x1="334.321" y1="1103.88" x2="451.072" y2="1189.05" gradientUnits="userSpaceOnUse"><stop stop-color="#fff"/><stop offset="1" stop-color="#fff" stop-opacity="0"/></linearGradient><linearGradient id="h" x1="330.727" y1="1336.02" x2="349.048" y2="1367.76" gradientUnits="userSpaceOnUse"><stop stop-color="#fff"/><stop offset="1" stop-color="#fff" stop-opacity="0"/></linearGradient><linearGradient id="i" x1="495.723" y1="1287.12" x2="514.043" y2="1318.87" gradientUnits="userSpaceOnUse"><stop stop-color="#fff"/><stop offset="1" stop-color="#fff" stop-opacity="0"/></linearGradient><linearGradient id="j" x1="466.287" y1="1342.99" x2="545.756" y2="1405.21" gradientUnits="userSpaceOnUse"><stop stop-color="#fff"/><stop offset="1" stop-color="#fff" stop-opacity="0"/></linearGradient><linearGradient id="k" x1="314.921" y1="1271.67" x2="338.103" y2="1284.59" gradientUnits="userSpaceOnUse"><stop stop-color="#fff"/><stop offset="1" stop-color="#fff" stop-opacity="0"/></linearGradient><linearGradient id="l" x1="773.727" y1="663.023" x2="792.048" y2="694.764" gradientUnits="userSpaceOnUse"><stop stop-color="#fff"/><stop offset="1" stop-color="#fff" stop-opacity="0"/></linearGradient><linearGradient id="m" x1="938.723" y1="614.125" x2="957.043" y2="645.865" gradientUnits="userSpaceOnUse"><stop stop-color="#fff"/><stop offset="1" stop-color="#fff" stop-opacity="0"/></linearGradient><linearGradient id="n" x1="788.836" y1="681.683" x2="768.939" y2="843.067" gradientUnits="userSpaceOnUse"><stop stop-color="#fff"/><stop offset="1" stop-color="#fff" stop-opacity="0"/></linearGradient><linearGradient id="o" x1="909.287" y1="669.987" x2="988.756" y2="732.209" gradientUnits="userSpaceOnUse"><stop stop-color="#fff"/><stop offset="1" stop-color="#fff" stop-opacity="0"/></linearGradient><linearGradient id="p" x1="956.01" y1="769.868" x2="979.94" y2="788.753" gradientUnits="userSpaceOnUse"><stop stop-color="#fff"/><stop offset="1" stop-color="#fff" stop-opacity="0"/></linearGradient><linearGradient id="q" x1="1170" y1="989" x2="1194" y2="989" gradientUnits="userSpaceOnUse"><stop stop-color="#fff" stop-opacity=".2"/><stop offset="1" stop-color="#fff" stop-opacity="0"/></linearGradient><linearGradient id="r" x1="1308.68" y1="858.999" x2="1320.76" y2="893.111" gradientUnits="userSpaceOnUse"><stop stop-color="#485BFF"/><stop offset="1" stop-color="#FF59F8"/></linearGradient><linearGradient id="s" x1="1308.68" y1="858.999" x2="1320.76" y2="893.111" gradientUnits="userSpaceOnUse"><stop stop-color="#485BFF"/><stop offset="1" stop-color="#FF59F8"/></linearGradient><linearGradient id="t" x1="1308.68" y1="858.999" x2="1320.76" y2="893.111" gradientUnits="userSpaceOnUse"><stop stop-color="#485BFF"/><stop offset="1" stop-color="#FF59F8"/></linearGradient><linearGradient id="u" x1="1302.08" y1="843" x2="1362.3" y2="917.547" gradientUnits="userSpaceOnUse"><stop stop-color="#485BFF"/><stop offset="1" stop-color="#FF59F8"/></linearGradient><clipPath id="a"><path fill="#fff" d="M0 0h1920v1348H0z"/></clipPath><clipPath id="c"><rect x="240" y="620" width="1440" height="820" rx="40" fill="#fff"/></clipPath><filter id="b" x="212" y="612" width="1504" height="884" filterUnits="userSpaceOnUse" color-interpolation-filters="sRGB"><feFlood flood-opacity="0" result="BackgroundImageFix"/><feColorMatrix in="SourceAlpha" values="0 0 0 0 0 0 0 0 0 0 0 0 0 0 0 0 0 0 127 0" result="hardAlpha"/><feOffset dx="4" dy="24"/><feGaussianBlur stdDeviation="16"/><feColorMatrix values="0 0 0 0 0.534078 0 0 0 0 0.416111 0 0 0 0 0.891667 0 0 0 1 0"/><feBlend in2="BackgroundImageFix" result="effect1_dropShadow_45_29835"/><feBlend in="SourceGraphic" in2="effect1_dropShadow_45_29835" result="shape"/></filter></defs></svg>